<?xml version="1.0" encoding="UTF-8"?>
<svg width="21px" height="20px" viewBox="0 0 21 20" version="1.1" xmlns="http://www.w3.org/2000/svg" xmlns:xlink="http://www.w3.org/1999/xlink">
    <title>Icon Shape</title>
    <g id="Page-1" stroke="none" stroke-width="1" fill="none" fill-rule="evenodd">
        <g id="web" transform="translate(-1264.000000, -92.000000)" fill="#EBB900" fill-rule="nonzero">
            <g id="Group-20" transform="translate(1070.000000, 92.000000)">
                <g id="social-media" transform="translate(167.000000, 0.000000)">
                    <path d="M29.0909091,0 C28.0963636,0 27.2727273,0.823636364 27.2727273,1.81818182 L27.2727273,18.1818182 C27.2727273,19.1763636 28.0963636,20 29.0909091,20 L45.4545455,20 C46.4490909,20 47.2727273,19.1763636 47.2727273,18.1818182 L47.2727273,1.81818182 C47.2727273,0.823636364 46.4490909,0 45.4545455,0 L29.0909091,0 Z M28.9393939,1.66666667 L45.6060606,1.66666667 L45.6060606,18.3333333 L40.8023569,18.3333333 L40.8023569,12.0833333 L43.2042088,12.0833333 L43.551431,9.30555556 L40.8032828,9.30555556 L40.8032828,7.51111111 C40.8032828,6.70185185 41.001431,6.15185185 42.1625421,6.15185185 L43.6671717,6.15185185 L43.6671717,3.63425926 C43.4106902,3.60185185 42.5208754,3.54722222 41.4977273,3.54722222 C39.363468,3.54722222 37.9097643,4.83148148 37.9097643,7.22222222 L37.9097643,9.30555556 L35.4792088,9.30555556 L35.4792088,12.0833333 L37.9088384,12.0833333 L37.9088384,18.3333333 L28.9393939,18.3333333 L28.9393939,1.66666667 Z" id="Icon-Shape"></path>
                </g>
            </g>
        </g>
    </g>
</svg>