<?xml version="1.0" encoding="UTF-8"?>
<svg width="20px" height="20px" viewBox="0 0 20 20" version="1.1" xmlns="http://www.w3.org/2000/svg" xmlns:xlink="http://www.w3.org/1999/xlink">
    <title>Icon Shape</title>
    <g id="Page-1" stroke="none" stroke-width="1" fill="none" fill-rule="evenodd">
        <g id="web" transform="translate(-1237.000000, -92.000000)" fill="#EBB900" fill-rule="nonzero">
            <g id="Group-20" transform="translate(1070.000000, 92.000000)">
                <g id="social-media" transform="translate(167.000000, 0.000000)">
                    <path d="M10,5 C7.23305705,5 5,7.23305705 5,10 C5,12.766943 7.23305705,15 10,15 C12.766943,15 15,12.766943 15,10 C15,7.23305705 12.766943,5 10,5 Z M10,13.3333333 C8.16454114,13.3333333 6.66666667,11.8354589 6.66666667,10 C6.66666667,8.16454114 8.16454114,6.66666667 10,6.66666667 C11.8354589,6.66666667 13.3333333,8.16454114 13.3333333,10 C13.3333333,11.8354589 11.8354589,13.3333333 10,13.3333333 Z M15.4166662,3.33333333 C14.7251216,3.33333333 14.1666667,3.89178921 14.1666667,4.58333383 C14.1666667,5.27487844 14.7251216,5.83333333 15.4166662,5.83333333 C16.1082108,5.83333333 16.6666667,5.27748804 16.6666667,4.58333383 C16.6670819,4.25168593 16.5355196,3.93350178 16.3010089,3.69899111 C16.0664982,3.46448045 15.7483141,3.33291811 15.4166662,3.33333333 Z M19.9988836,10 C19.9988836,8.61906699 20.0113918,7.25064243 19.9338408,5.8722111 C19.8562899,4.27112935 19.4910499,2.85016929 18.3202807,1.67937826 C17.1470098,0.506085536 15.7285778,0.143340451 14.1275259,0.065788054 C12.7466186,-0.0117643435 11.3782195,0.000744107746 9.99981383,0.000744107746 C8.61890653,0.000744107746 7.25050744,-0.0117643435 5.87210178,0.065788054 C4.27104983,0.143340451 2.85011623,0.508587227 1.67934699,1.67937826 C0.506076115,2.85267098 0.143337783,4.27112935 0.0657868292,5.8722111 C-0.0117641244,7.25314412 0.000744093892,8.62156868 0.000744093892,10 C0.000744093892,11.3784313 -0.0117641244,12.7493576 0.0657868292,14.1277889 C0.143337783,15.7288707 0.508577758,17.1498307 1.67934699,18.3206217 C2.85261787,19.4939145 4.27104983,19.8566595 5.87210178,19.9342119 C7.25300908,20.0117643 8.62140817,19.9992559 9.99981383,19.9992559 C11.3807211,19.9992559 12.7491202,20.0117643 14.1275259,19.9342119 C15.7285778,19.8566595 17.1495114,19.4914128 18.3202807,18.3206217 C19.4935515,17.147329 19.8562899,15.7288707 19.9338408,14.1277889 C20.0138934,12.7493576 19.9988836,11.380933 19.9988836,10 Z M17.9107659,15.9825484 C17.7255555,16.4443058 17.5022882,16.7893552 17.1445532,17.1445532 C16.7868181,17.5022882 16.4443058,17.7255555 15.9825484,17.9107659 C14.648019,18.4410257 11.4791458,18.3217807 10,18.3217807 C8.52085423,18.3217807 5.34944391,18.4410257 4.01491445,17.913303 C3.55315711,17.7280927 3.20810767,17.5048254 2.85290971,17.1470903 C2.49517463,16.7893552 2.27190734,16.4468429 2.08669698,15.9850855 C1.5589743,14.648019 1.67821933,11.4791458 1.67821933,10 C1.67821933,8.52085423 1.5589743,5.34944391 2.08669698,4.01491445 C2.27190734,3.55315711 2.49517463,3.20810767 2.85290971,2.85290971 C3.21064479,2.49771176 3.55315711,2.27190734 4.01491445,2.08669698 C5.34944391,1.5589743 8.52085423,1.67821933 10,1.67821933 C11.4791458,1.67821933 14.6505561,1.5589743 15.9850855,2.08669698 C16.4468429,2.27190734 16.7918923,2.49517463 17.1470903,2.85290971 C17.5048254,3.21064479 17.7280927,3.55315711 17.913303,4.01491445 C18.4410257,5.34944391 18.3217807,8.52085423 18.3217807,10 C18.3217807,11.4791458 18.4410257,14.648019 17.9107659,15.9825484 Z" id="Icon-Shape"></path>
                </g>
            </g>
        </g>
    </g>
</svg>