<?xml version="1.0" encoding="UTF-8"?>
<svg width="20px" height="20px" viewBox="0 0 20 20" version="1.1" xmlns="http://www.w3.org/2000/svg" xmlns:xlink="http://www.w3.org/1999/xlink">
    <title>Icon Shape</title>
    <g id="Page-1" stroke="none" stroke-width="1" fill="none" fill-rule="evenodd">
        <g id="web" transform="translate(-1070.000000, -93.000000)" fill="#FFFFFF">
            <g id="Group-20" transform="translate(1070.000000, 92.000000)">
                <g id="number" transform="translate(0.000000, 1.000000)">
                    <path d="M17.0858979,2.90687688 C15.2225382,1.04015878 12.6859747,-0.00662429219 10.0421109,3.15470656e-05 C4.55350327,3.15470656e-05 0.0854128506,4.44584308 0.083194335,9.91060827 C0.083194335,11.6571251 0.541317806,13.3616903 1.41208518,14.8653287 L0,20 L5.27895787,18.6211128 C6.73917866,19.4122292 8.37511766,19.8270531 10.0376738,19.8277771 L10.0421109,19.8277771 C15.5296092,19.8277771 19.9976996,15.3819974 19.9999593,9.91723223 C20.0075325,7.28704412 18.9583432,4.76297437 17.0858979,2.90687688 M10.0421109,18.1552278 L10.0387831,18.1552278 C8.55627973,18.1552278 7.10106155,17.758412 5.82582196,17.0059711 L5.52410384,16.8271242 L2.39155982,17.645183 L3.22683094,14.6058904 L3.03049231,14.2945643 C2.20164147,12.9812809 1.76286922,11.4614782 1.76482262,9.91060827 C1.76704767,5.3687812 5.47973353,1.67369651 10.0454386,1.67369651 C12.2417427,1.66886012 14.3487259,2.53866079 15.8967735,4.08925335 C17.4530878,5.63243055 18.3249507,7.73079022 18.3183213,9.91723223 C18.3160648,14.4590593 14.6033789,18.1552278 10.0421109,18.1552278 M14.582303,11.9850111 C14.33272,11.8602598 13.1103179,11.2618957 12.8818108,11.1790962 C12.654413,11.0962967 12.4891336,11.055449 12.3227449,11.3027434 C12.1563562,11.5500378 11.6793754,12.1075543 11.5340626,12.2731532 C11.3887498,12.4387522 11.2434371,12.458624 10.9949633,12.3349768 C10.7464896,12.2113296 9.94449617,11.9496833 8.99386224,11.1062327 C8.25398729,10.4493568 7.75482128,9.639026 7.6095085,9.39062758 C7.46419573,9.14222916 7.5939789,9.00864601 7.71932503,8.8849988 C7.83136006,8.7745995 7.96779877,8.59575264 8.09203565,8.45112956 C8.21627252,8.30650649 8.25731506,8.20383514 8.34050939,8.03823619 C8.42370373,7.87263725 8.38266119,7.72801417 8.3194335,7.60436696 C8.25731506,7.47961575 7.75925831,6.26080752 7.5518271,5.76511467 C7.35105144,5.28487773 7.14583874,5.34890932 6.99276117,5.34228537 C6.83422268,5.33583155 6.6755596,5.33288684 6.51688957,5.33338485 C6.26182318,5.33992254 6.02101929,5.45195104 5.85244415,5.64257145 C5.62393704,5.89096987 4.98167678,6.48933406 4.98167678,7.7081423 C4.98167678,8.92695053 5.87352005,10.104911 5.99775692,10.27051 C6.1219938,10.4361089 7.75260276,12.936653 10.2484328,14.0097342 C10.842995,14.2647565 11.3066648,14.4171076 11.6671735,14.5319228 C12.262845,14.7207056 12.805272,14.6931058 13.2345548,14.6301782 C13.7126449,14.5595227 14.7065399,14.031814 14.9139711,13.4533217 C15.1214023,12.8748294 15.1214023,12.3791365 15.0592839,12.2753612 C14.9971655,12.1715859 14.8296675,12.1086583 14.582303,11.9850111" id="Icon-Shape"></path>
                </g>
            </g>
        </g>
    </g>
</svg>