<?xml version="1.0" encoding="UTF-8"?>
<svg width="279px" height="45px" viewBox="0 0 279 45" version="1.1" xmlns="http://www.w3.org/2000/svg" xmlns:xlink="http://www.w3.org/1999/xlink">
    <title>logo-h</title>
    <g id="Page-1" stroke="none" stroke-width="1" fill="none" fill-rule="evenodd">
        <g id="web" transform="translate(-145.000000, -39.000000)" fill="#FFFFFF">
            <g id="header" transform="translate(-5.000000, 1.000000)">
                <g id="logo-h" transform="translate(150.000000, 38.000000)">
                    <path d="M56.5272486,5 L22.8317518,5 C20.8921603,5 19.0698845,6.46014414 18.5932893,8.39637475 L14.1163135,26.5793841 C13.8407078,27.697969 14.0602435,28.8283468 14.717988,29.6809347 C15.3649498,30.5195458 16.3694659,31 17.4727514,31 L51.1682482,31 C53.1078397,31 54.9305468,29.5402926 55.4067107,27.6036252 L59.8836865,9.42061585 C60.1592922,8.30246779 59.9397565,7.17208998 59.282012,6.31950207 C58.6350502,5.48089102 57.6313967,5 56.5272486,5 M56.5272486,7.11705613 C57.5045922,7.11705613 58.0993658,7.91941472 57.8552455,8.90871369 L53.3787011,27.0912863 C53.1350121,28.0810221 52.1455918,28.8833807 51.1682482,28.8833807 L17.4727514,28.8833807 C16.4958391,28.8833807 15.9014968,28.0810221 16.1447545,27.0912863 L20.6217303,8.90871369 C20.8649879,7.91941472 21.8544082,7.11705613 22.8317518,7.11705613 L56.5272486,7.11705613" id="Fill-1"></path>
                    <path d="M39.3356238,1.43577328 C39.3356238,1.43577328 21.8230621,1 20.947391,1 C19.8230621,1 18.7592871,1.25420108 17.8093193,1.70791797 C16.744256,2.21632014 7.09856131,10.2268584 7.09856131,10.2268584 L0.870517501,10.2268584 C0.390380073,10.2268584 0,10.6122187 0,11.0902877 L0,20.8387924 C0,21.3164341 0.390380073,21.704785 0.870517501,21.704785 L5.86042517,21.704785 C7.7564956,21.7714326 10.4273137,21.7214469 11.8943526,22.6284534 C13.8346575,23.8272572 15.0942667,25 19.101997,25 C21.0925489,25 23.5082671,24.0912845 25.1741464,22.1653375 C26.7236418,20.3739675 27.7204209,20.0356024 28.7962207,20.0356024 L33.5374705,20.0356024 C35.0096629,20.0356024 36.2018467,18.8470521 36.2018467,17.3829393 C36.2018467,15.9183993 35.0096629,14.7324124 33.5374705,14.7324124 L18.2963281,14.7324124 L19.1140219,11.4653945 L19.4253811,10.2268584 L19.8604252,8.48974651 C20.1030706,7.5237824 21.0899721,6.73939049 22.0627013,6.73939049 L28.0562594,6.73939049 L39.3356238,6.73939049 C40.8078162,6.73939049 42,5.55084022 42,4.0863002 C42,2.62176018 40.8078162,1.43577328 39.3356238,1.43577328" id="Fill-3"></path>
                    <path d="M34.6643762,33.5642267 C34.6643762,33.5642267 52.1769379,34 53.052609,34 C54.1769379,34 55.2407129,33.7457989 56.1906807,33.2925093 C57.255744,32.7841071 66.9014387,24.7735688 66.9014387,24.7735688 L73.129053,24.7735688 C73.6096199,24.7735688 74,24.3877813 74,23.9101396 L74,14.1616349 C74,13.6839932 73.6096199,13.2956423 73.129053,13.2956423 L68.1395748,13.2956423 C66.2430749,13.2289946 63.5726863,13.2789803 62.1056474,12.3719738 C60.164913,11.17317 58.9057333,10 54.8975735,10 C52.9074511,10 50.4917329,10.9091427 48.8258536,12.8350897 C47.2763582,14.6264597 46.2795791,14.9643976 45.2037793,14.9643976 L40.4621001,14.9643976 C38.9903371,14.9643976 37.7981533,16.1529479 37.7981533,17.6174879 C37.7981533,19.0820279 38.9903371,20.2680148 40.4621001,20.2680148 L55.7036719,20.2680148 L54.8859781,23.5346055 L54.5746189,24.7735688 L54.1395748,26.5106807 C53.8969294,27.4762176 52.9100279,28.2610367 51.9368692,28.2610367 L45.9437406,28.2610367 L34.6643762,28.2610367 C33.1921838,28.2610367 32,29.449587 32,30.914127 C32,32.3782398 33.1921838,33.5642267 34.6643762,33.5642267" id="Fill-5"></path>
                    <polygon id="Fill-7" points="174 23 182 23 182 18 174 18"></polygon>
                    <path d="M91.672026,13.0914684 L89.4325598,13.0914684 L89.9038888,10.7350683 L92.5354031,10.3421898 L94.3823856,5 L97.6821242,5 L96.5430065,10.4602276 L100,10.4602276 L99.4498258,13.0914684 L95.9536274,13.0914684 L93.7538017,23.4618065 C93.6361872,23.9330865 93.5965468,24.325965 93.5965468,24.6012414 C93.5965468,25.2685251 93.8718517,25.4649643 94.5004356,25.4649643 C95.1677887,25.4649643 95.7576034,25.2293243 97.2504356,24.5224043 L97.2504356,27.6257963 C96.0716775,28.4503185 93.9110565,29 92.143355,29 C89.7858387,29 89,28.05744 89,26.4070888 C89,25.8186421 89.1184857,25.1117221 89.2753049,24.3656014 L91.672026,13.0914684 Z" id="Fill-9"></path>
                    <path d="M114.239443,17.9589918 C114.239443,15.4618835 113.208862,13.3554351 110.709603,13.3554351 C106.782572,13.3554351 104.759677,17.4515233 104.759677,21.196753 C104.759677,23.6164215 105.751111,25.7618061 108.210344,25.7618061 C112.137814,25.7618061 114.239443,21.6648527 114.239443,17.9589918 M119,17.4908921 C119,23.3040667 115.112557,29 107.536485,29 C102.260857,29 100,25.6060613 100,21.5878455 C100,15.8131746 104.045791,10 111.542689,10 C116.817877,10 119,13.4722437 119,17.4908921" id="Fill-10"></path>
                    <path d="M131.476705,28 L133.97916,16.4798655 C134.056455,16.0630296 134.095315,15.7218293 134.095315,15.3814693 C134.095315,14.0544856 133.440663,13.3725051 132.130931,13.3725051 C130.513729,13.3725051 127.779818,14.6230128 126.662681,16.8210659 L124.236239,28 L120,28 L123.774181,10.5689474 L127.085878,10.5689474 L126.700688,13.1451782 L126.854849,13.1451782 C128.356749,11.0236011 131.052654,10 133.555964,10 C135.943972,10 137.908357,10.8336718 138.408421,13.0695427 C139.909895,11.0236011 142.567793,10 145.032669,10 C147.804586,10 150,11.0983962 150,14.2439947 C150,14.8125219 149.923133,15.4562644 149.768971,16.1390854 L147.189222,28 L142.952556,28 L145.455865,16.4798655 C145.53316,16.0630296 145.571166,15.7218293 145.571166,15.3814693 C145.571166,14.0544856 144.916941,13.3725051 143.606781,13.3725051 C141.990007,13.3725051 139.255669,14.6230128 138.176965,16.8210659 L138.176965,16.6689544 L135.712517,28 L131.476705,28 Z" id="Fill-11"></path>
                    <path d="M165.101739,23.3041964 L166.681451,15.8134748 C165.526044,13.9013183 163.984361,13.3164234 162.520019,13.3164234 C158.551297,13.3164234 156.238773,17.2956124 156.238773,21.1194927 C156.238773,23.5382409 157.240781,25.7618798 159.591334,25.7618798 C161.248387,25.7618798 163.637397,24.8257019 165.101739,23.3041964 L165.101739,23.3041964 Z M172,10.5857601 L168.223561,28.531911 L164.831688,28.531911 L165.024826,26.0737949 L164.870572,26.0737949 C163.097723,27.6731711 161.13259,29 158.358587,29 C154.312097,29 152,25.8397504 152,21.5482138 C152,15.9692161 155.776439,10 162.250395,10 C164.677862,10 166.835705,10.89681 167.722343,12.3793802 L167.87617,12.3793802 L168.685895,10.5857601 L172,10.5857601 Z" id="Fill-12"></path>
                    <path d="M200.762424,23.3699367 L200.762424,15.9656723 C199.207496,14.0755858 197.535744,13.4974416 196.058412,13.4974416 C192.792935,13.4974416 191.237576,16.3120457 191.237576,19.5517053 C191.237576,22.6759072 192.676542,25.7992539 195.70837,25.7992539 C197.380553,25.7992539 199.596336,24.8738812 200.762424,23.3699367 M187,19.4751611 C187,14.6541575 189.605053,10.219296 195.047515,10.219296 C197.496946,10.219296 199.557538,11.1057552 200.762424,12.5712137 L200.762424,0 L205,0 L205,28.5373137 L201.579332,28.5373137 L201.268088,26.1075689 L201.112466,26.1075689 C199.673931,27.6884852 197.963382,29 195.164771,29 C190.265477,29 187,24.9123671 187,19.4751611" id="Fill-13"></path>
                    <path d="M220.632401,23.3041964 L220.632401,19.7537285 L219.878274,19.7537285 C215.550737,19.7537285 213.644948,20.807145 213.644948,23.1869578 C213.644948,24.7867665 214.478318,25.5278353 216.067136,25.5278353 C217.773938,25.5278353 219.640106,24.6305927 220.632401,23.3041964 L220.632401,23.3041964 Z M221.505393,28.531911 L221.188862,26.0737949 L221.029056,26.0737949 C219.600044,27.8297775 216.900506,29 214.359894,29 C211.025094,29 209,26.8935996 209,23.8112207 C209,19.519684 212.890381,16.9836973 218.9256,16.9836973 L220.632401,16.9836973 L220.632401,16.3979371 C220.632401,15.3834559 220.31455,14.6428197 219.640106,14.1742981 C218.964781,13.7062092 217.893242,13.4721647 216.423729,13.4721647 C214.399076,13.4721647 212.731895,13.9013183 211.183579,14.7596257 L210.349769,11.5219381 C212.136254,10.5074569 214.24015,10 216.781642,10 C219.401937,10 221.466652,10.5463922 222.815981,11.5998087 C224.086507,12.574922 225,14.1742981 225,16.3204991 L225,28.531911 L221.505393,28.531911 Z" id="Fill-14"></path>
                    <path d="M242.396834,28 L242.396834,16.4798655 C242.396834,14.4339239 241.516892,13.3725051 239.91137,13.3725051 C238.304575,13.3725051 235.856853,14.6230128 235.207181,16.8210659 L235.207181,28 L231,28 L231,10.5689474 L234.289497,10.5689474 L234.480328,13.1451782 L234.632993,13.1451782 C235.666023,11.0236011 238.11332,10 240.599632,10 C242.970174,10 245.112142,10.8336718 246.068416,13.1073605 C247.100598,11.0236011 249.510154,10 251.995618,10 C255.246525,10 258,11.5538903 258,16.1390854 L258,28 L253.793243,28 L253.793243,16.4798655 C253.793243,14.4339239 252.913726,13.3725051 251.307355,13.3725051 C249.701409,13.3725051 247.253687,14.6230128 246.603166,16.8210659 L246.603166,28 L242.396834,28 Z" id="Fill-15"></path>
                    <path d="M266.560291,16.905394 L273.819417,16.905394 C273.857346,16.7496528 273.895275,16.5545436 273.895275,16.2421959 C273.895275,14.5649491 272.641521,13.3557913 270.892588,13.3557913 C268.802718,13.3557913 267.206343,14.7206904 266.560291,16.905394 M278,16.6319816 C278,17.7637014 277.695728,19.3639427 277.278091,19.948405 L266.21809,19.948405 C266.408155,23.0701519 268.080809,25.605706 271.386925,25.605706 C273.248802,25.605706 275.567508,24.7867665 277.050097,23.6935495 L277.734078,26.8935996 C276.403203,27.7514743 273.781489,29 270.741295,29 C265.078123,29 262,24.5916574 262,19.5586193 C262,14.4087752 265.191909,10 271.007217,10 C275.453722,10 278,12.4187482 278,16.6319816" id="Fill-16"></path>
                    <path d="M229.394342,41 C230.292769,41 231,41.6251712 231,42.3130835 C231,43.2082659 229.693818,44 228.55103,44 C227.625777,44 227,43.4581103 227,42.7713183 C227,41.8955558 228.196927,41 229.394342,41" id="Fill-17"></path>
                    <path d="M244.962346,36.1783282 C244.359642,35.6359454 242.960105,35.1196216 241.778477,35.1196216 C238.956057,35.1196216 237.9197,37.7551253 237.9197,39.8248371 C237.9197,41.5005705 238.666811,42.8075012 240.330949,42.8075012 C241.48923,42.8075012 243.032741,42.2894107 244.094607,41.451544 L244.094607,43.7681549 C243.0803,44.3586808 241.247543,45 239.48699,45 C236.399536,45 235,42.856086 235,40.2687254 C235,36.7207111 237.316131,33 242.164138,33 C243.683869,33 245.22738,33.3939784 246,33.9849461 L244.962346,36.1783282 Z" id="Fill-18"></path>
                    <path d="M254.994387,38.0267584 C254.994387,36.4499614 254.343238,35.1196216 252.764314,35.1196216 C250.28456,35.1196216 249.006062,37.7065405 249.006062,40.0721778 C249.006062,41.6003902 249.633411,42.9545806 251.185839,42.9545806 C253.665594,42.9545806 254.994387,40.3676617 254.994387,38.0267584 M258,37.7312746 C258,41.4025176 255.544944,45 250.760123,45 C247.427588,45 246,42.8565277 246,40.3186352 C246,36.671243 248.555198,33 253.289724,33 C256.622708,33 258,35.1924988 258,37.7312746" id="Fill-19"></path>
                    <path d="M267.268178,44 L268.853405,36.9595849 C268.90237,36.7051321 268.926852,36.4967547 268.926852,36.2887925 C268.926852,35.4776981 268.511528,35.0605283 267.682191,35.0605283 C266.657869,35.0605283 264.926622,35.8251321 264.219696,37.1687925 L262.682996,44 L260,44 L262.39052,33.347434 L264.488127,33.347434 L264.243741,34.9223019 L264.341233,34.9223019 C265.292108,33.6251321 267.000184,33 268.584975,33 C270.09763,33 271.34098,33.5097358 271.658813,34.8753962 C272.609687,33.6251321 274.29197,33 275.853152,33 C277.608882,33 279,33.6720377 279,35.5939245 C279,35.9413585 278.951035,36.3344528 278.853543,36.7516226 L277.219351,44 L274.536355,44 L276.121583,36.9595849 C276.170548,36.7051321 276.19503,36.4967547 276.19503,36.2887925 C276.19503,35.4776981 275.781017,35.0605283 274.950368,35.0605283 C273.926047,35.0605283 272.1948,35.8251321 271.511919,37.1687925 L271.511919,37.0758113 L269.951173,44 L267.268178,44 Z" id="Fill-20"></path>
                    <path d="M56.5272486,5 L22.8317518,5 C20.8921603,5 19.0698845,6.46014414 18.5932893,8.39637475 L14.1163135,26.5793841 C13.8407078,27.697969 14.0602435,28.8283468 14.717988,29.6809347 C15.3649498,30.5195458 16.3694659,31 17.4727514,31 L51.1682482,31 C53.1078397,31 54.9305468,29.5402926 55.4067107,27.6036252 L59.8836865,9.42061585 C60.1592922,8.30246779 59.9397565,7.17208998 59.282012,6.31950207 C58.6350502,5.48089102 57.6313967,5 56.5272486,5 M56.5272486,7.11705613 C57.5045922,7.11705613 58.0993658,7.91941472 57.8552455,8.90871369 L53.3787011,27.0912863 C53.1350121,28.0810221 52.1455918,28.8833807 51.1682482,28.8833807 L17.4727514,28.8833807 C16.4958391,28.8833807 15.9014968,28.0810221 16.1447545,27.0912863 L20.6217303,8.90871369 C20.8649879,7.91941472 21.8544082,7.11705613 22.8317518,7.11705613 L56.5272486,7.11705613" id="Fill-29"></path>
                    <path d="M39.3356238,1.43577328 C39.3356238,1.43577328 21.8230621,1 20.947391,1 C19.8230621,1 18.7592871,1.25420108 17.8093193,1.70791797 C16.744256,2.21632014 7.09856131,10.2268584 7.09856131,10.2268584 L0.870517501,10.2268584 C0.390380073,10.2268584 0,10.6122187 0,11.0902877 L0,20.8387924 C0,21.3164341 0.390380073,21.704785 0.870517501,21.704785 L5.86042517,21.704785 C7.7564956,21.7714326 10.4273137,21.7214469 11.8943526,22.6284534 C13.8346575,23.8272572 15.0942667,25 19.101997,25 C21.0925489,25 23.5082671,24.0912845 25.1741464,22.1653375 C26.7236418,20.3739675 27.7204209,20.0356024 28.7962207,20.0356024 L33.5374705,20.0356024 C35.0096629,20.0356024 36.2018467,18.8470521 36.2018467,17.3829393 C36.2018467,15.9183993 35.0096629,14.7324124 33.5374705,14.7324124 L18.2963281,14.7324124 L19.1140219,11.4653945 L19.4253811,10.2268584 L19.8604252,8.48974651 C20.1030706,7.5237824 21.0899721,6.73939049 22.0627013,6.73939049 L28.0562594,6.73939049 L39.3356238,6.73939049 C40.8078162,6.73939049 42,5.55084022 42,4.0863002 C42,2.62176018 40.8078162,1.43577328 39.3356238,1.43577328" id="Fill-30"></path>
                    <path d="M34.6643762,33.5642267 C34.6643762,33.5642267 52.1769379,34 53.052609,34 C54.1769379,34 55.2407129,33.7457989 56.1906807,33.2925093 C57.255744,32.7841071 66.9014387,24.7735688 66.9014387,24.7735688 L73.129053,24.7735688 C73.6096199,24.7735688 74,24.3877813 74,23.9101396 L74,14.1616349 C74,13.6839932 73.6096199,13.2956423 73.129053,13.2956423 L68.1395748,13.2956423 C66.2430749,13.2289946 63.5726863,13.2789803 62.1056474,12.3719738 C60.164913,11.17317 58.9057333,10 54.8975735,10 C52.9074511,10 50.4917329,10.9091427 48.8258536,12.8350897 C47.2763582,14.6264597 46.2795791,14.9643976 45.2037793,14.9643976 L40.4621001,14.9643976 C38.9903371,14.9643976 37.7981533,16.1529479 37.7981533,17.6174879 C37.7981533,19.0820279 38.9903371,20.2680148 40.4621001,20.2680148 L55.7036719,20.2680148 L54.8859781,23.5346055 L54.5746189,24.7735688 L54.1395748,26.5106807 C53.8969294,27.4762176 52.9100279,28.2610367 51.9368692,28.2610367 L45.9437406,28.2610367 L34.6643762,28.2610367 C33.1921838,28.2610367 32,29.449587 32,30.914127 C32,32.3782398 33.1921838,33.5642267 34.6643762,33.5642267" id="Fill-31"></path>
                    <polygon id="Fill-32" points="174 23 182 23 182 18 174 18"></polygon>
                    <path d="M91.672026,13.0914684 L89.4325598,13.0914684 L89.9038888,10.7350683 L92.5354031,10.3421898 L94.3823856,5 L97.6821242,5 L96.5430065,10.4602276 L100,10.4602276 L99.4498258,13.0914684 L95.9536274,13.0914684 L93.7538017,23.4618065 C93.6361872,23.9330865 93.5965468,24.325965 93.5965468,24.6012414 C93.5965468,25.2685251 93.8718517,25.4649643 94.5004356,25.4649643 C95.1677887,25.4649643 95.7576034,25.2293243 97.2504356,24.5224043 L97.2504356,27.6257963 C96.0716775,28.4503185 93.9110565,29 92.143355,29 C89.7858387,29 89,28.05744 89,26.4070888 C89,25.8186421 89.1184857,25.1117221 89.2753049,24.3656014 L91.672026,13.0914684 Z" id="Fill-33"></path>
                    <path d="M114.239443,17.9589918 C114.239443,15.4618835 113.208862,13.3554351 110.709603,13.3554351 C106.782572,13.3554351 104.759677,17.4515233 104.759677,21.196753 C104.759677,23.6164215 105.751111,25.7618061 108.210344,25.7618061 C112.137814,25.7618061 114.239443,21.6648527 114.239443,17.9589918 M119,17.4908921 C119,23.3040667 115.112557,29 107.536485,29 C102.260857,29 100,25.6060613 100,21.5878455 C100,15.8131746 104.045791,10 111.542689,10 C116.817877,10 119,13.4722437 119,17.4908921" id="Fill-34"></path>
                    <path d="M131.476705,28 L133.97916,16.4798655 C134.056455,16.0630296 134.095315,15.7218293 134.095315,15.3814693 C134.095315,14.0544856 133.440663,13.3725051 132.130931,13.3725051 C130.513729,13.3725051 127.779818,14.6230128 126.662681,16.8210659 L124.236239,28 L120,28 L123.774181,10.5689474 L127.085878,10.5689474 L126.700688,13.1451782 L126.854849,13.1451782 C128.356749,11.0236011 131.052654,10 133.555964,10 C135.943972,10 137.908357,10.8336718 138.408421,13.0695427 C139.909895,11.0236011 142.567793,10 145.032669,10 C147.804586,10 150,11.0983962 150,14.2439947 C150,14.8125219 149.923133,15.4562644 149.768971,16.1390854 L147.189222,28 L142.952556,28 L145.455865,16.4798655 C145.53316,16.0630296 145.571166,15.7218293 145.571166,15.3814693 C145.571166,14.0544856 144.916941,13.3725051 143.606781,13.3725051 C141.990007,13.3725051 139.255669,14.6230128 138.176965,16.8210659 L138.176965,16.6689544 L135.712517,28 L131.476705,28 Z" id="Fill-35"></path>
                    <path d="M165.101739,23.3041964 L166.681451,15.8134748 C165.526044,13.9013183 163.984361,13.3164234 162.520019,13.3164234 C158.551297,13.3164234 156.238773,17.2956124 156.238773,21.1194927 C156.238773,23.5382409 157.240781,25.7618798 159.591334,25.7618798 C161.248387,25.7618798 163.637397,24.8257019 165.101739,23.3041964 L165.101739,23.3041964 Z M172,10.5857601 L168.223561,28.531911 L164.831688,28.531911 L165.024826,26.0737949 L164.870572,26.0737949 C163.097723,27.6731711 161.13259,29 158.358587,29 C154.312097,29 152,25.8397504 152,21.5482138 C152,15.9692161 155.776439,10 162.250395,10 C164.677862,10 166.835705,10.89681 167.722343,12.3793802 L167.87617,12.3793802 L168.685895,10.5857601 L172,10.5857601 Z" id="Fill-36"></path>
                    <path d="M200.762424,23.3699367 L200.762424,15.9656723 C199.207496,14.0755858 197.535744,13.4974416 196.058412,13.4974416 C192.792935,13.4974416 191.237576,16.3120457 191.237576,19.5517053 C191.237576,22.6759072 192.676542,25.7992539 195.70837,25.7992539 C197.380553,25.7992539 199.596336,24.8738812 200.762424,23.3699367 M187,19.4751611 C187,14.6541575 189.605053,10.219296 195.047515,10.219296 C197.496946,10.219296 199.557538,11.1057552 200.762424,12.5712137 L200.762424,0 L205,0 L205,28.5373137 L201.579332,28.5373137 L201.268088,26.1075689 L201.112466,26.1075689 C199.673931,27.6884852 197.963382,29 195.164771,29 C190.265477,29 187,24.9123671 187,19.4751611" id="Fill-37"></path>
                    <path d="M220.632401,23.3041964 L220.632401,19.7537285 L219.878274,19.7537285 C215.550737,19.7537285 213.644948,20.807145 213.644948,23.1869578 C213.644948,24.7867665 214.478318,25.5278353 216.067136,25.5278353 C217.773938,25.5278353 219.640106,24.6305927 220.632401,23.3041964 L220.632401,23.3041964 Z M221.505393,28.531911 L221.188862,26.0737949 L221.029056,26.0737949 C219.600044,27.8297775 216.900506,29 214.359894,29 C211.025094,29 209,26.8935996 209,23.8112207 C209,19.519684 212.890381,16.9836973 218.9256,16.9836973 L220.632401,16.9836973 L220.632401,16.3979371 C220.632401,15.3834559 220.31455,14.6428197 219.640106,14.1742981 C218.964781,13.7062092 217.893242,13.4721647 216.423729,13.4721647 C214.399076,13.4721647 212.731895,13.9013183 211.183579,14.7596257 L210.349769,11.5219381 C212.136254,10.5074569 214.24015,10 216.781642,10 C219.401937,10 221.466652,10.5463922 222.815981,11.5998087 C224.086507,12.574922 225,14.1742981 225,16.3204991 L225,28.531911 L221.505393,28.531911 Z" id="Fill-38"></path>
                    <path d="M242.396834,28 L242.396834,16.4798655 C242.396834,14.4339239 241.516892,13.3725051 239.91137,13.3725051 C238.304575,13.3725051 235.856853,14.6230128 235.207181,16.8210659 L235.207181,28 L231,28 L231,10.5689474 L234.289497,10.5689474 L234.480328,13.1451782 L234.632993,13.1451782 C235.666023,11.0236011 238.11332,10 240.599632,10 C242.970174,10 245.112142,10.8336718 246.068416,13.1073605 C247.100598,11.0236011 249.510154,10 251.995618,10 C255.246525,10 258,11.5538903 258,16.1390854 L258,28 L253.793243,28 L253.793243,16.4798655 C253.793243,14.4339239 252.913726,13.3725051 251.307355,13.3725051 C249.701409,13.3725051 247.253687,14.6230128 246.603166,16.8210659 L246.603166,28 L242.396834,28 Z" id="Fill-39"></path>
                    <path d="M266.560291,16.905394 L273.819417,16.905394 C273.857346,16.7496528 273.895275,16.5545436 273.895275,16.2421959 C273.895275,14.5649491 272.641521,13.3557913 270.892588,13.3557913 C268.802718,13.3557913 267.206343,14.7206904 266.560291,16.905394 M278,16.6319816 C278,17.7637014 277.695728,19.3639427 277.278091,19.948405 L266.21809,19.948405 C266.408155,23.0701519 268.080809,25.605706 271.386925,25.605706 C273.248802,25.605706 275.567508,24.7867665 277.050097,23.6935495 L277.734078,26.8935996 C276.403203,27.7514743 273.781489,29 270.741295,29 C265.078123,29 262,24.5916574 262,19.5586193 C262,14.4087752 265.191909,10 271.007217,10 C275.453722,10 278,12.4187482 278,16.6319816" id="Fill-40"></path>
                </g>
            </g>
        </g>
    </g>
</svg>