<?xml version="1.0" encoding="UTF-8"?>
<svg width="383px" height="301px" viewBox="0 0 383 301" version="1.1" xmlns="http://www.w3.org/2000/svg" xmlns:xlink="http://www.w3.org/1999/xlink">
    <title>Group 98</title>
    <defs>
        <polygon id="path-1" points="0 0.918229096 35.9701499 0.918229096 35.9701499 7.8841 0 7.8841"></polygon>
    </defs>
    <g id="Page-1" stroke="none" stroke-width="1" fill="none" fill-rule="evenodd">
        <g id="web" transform="translate(-230.000000, -1407.000000)">
            <g id="Group-98" transform="translate(230.000000, 1407.000000)">
                <path d="M265.4889,159.3759 C249.3859,219.3879 187.0089,272.0289 126.1649,276.9549 C65.3199,281.8809 29.0499,237.2249 45.1509,177.2129 C61.2539,117.2019 123.6319,64.5599 184.4759,59.6339 C245.3209,54.7079 281.5919,99.3639 265.4889,159.3759" id="Fill-1" fill="#D9DADB"></path>
                <path d="M250.8873,160.5575 C236.9183,212.6155 182.8083,258.2805 130.0293,262.5535 C77.2483,266.8265 45.7843,228.0885 59.7533,176.0315 C73.7213,123.9735 127.8313,78.3085 180.6123,74.0365 C233.3923,69.7625 264.8553,108.4995 250.8873,160.5575" id="Fill-3" fill="#FFFFFF"></path>
                <path d="M233.7409,102.1132 L155.3209,168.2952 L67.6259,175.3942 L243.0149,161.1952 C249.4249,137.3102 245.4109,116.4812 233.7409,102.1132" id="Fill-5" fill="#525AC5"></path>
                <path d="M109.7213,112.1532 C97.9243,122.1092 87.6853,133.9682 79.9303,146.8962 C78.9923,148.4622 78.0913,150.0422 77.2283,151.6362 C76.4963,152.9862 75.7953,154.3462 75.1193,155.7162 C71.9733,162.1022 69.4243,168.6862 67.6253,175.3942 L155.3213,168.2952 L109.7213,112.1532 Z" id="Fill-7" fill="#BABDE8"></path>
                <path d="M155.3209,168.2948 L178.5289,81.7998 L178.5279,81.7998 C175.5019,82.0448 172.4689,82.4388 169.4419,82.9728 C167.5569,83.3048 165.6749,83.7108 163.7959,84.1498 C161.5869,84.6668 159.3849,85.2578 157.1909,85.9158 C140.2659,90.9988 123.8839,100.2008 109.7209,112.1528 L155.3209,168.2948 Z" id="Fill-9" fill="#CBCEEE"></path>
                <path d="M155.3209,168.2948 L233.7409,102.1128 C223.1649,89.0928 206.3009,81.3788 185.2089,81.5058 C183.0259,81.5198 180.7999,81.6158 178.5289,81.7998 L155.3209,168.2948 Z" id="Fill-11" fill="#868BD6"></path>
                <path d="M194.3092,165.1386 C188.6112,186.3766 166.5352,205.0066 145.0012,206.7496 C123.4682,208.4926 110.6322,192.6896 116.3302,171.4506 C122.0302,150.2126 144.1052,131.5816 165.6382,129.8386 C187.1712,128.0956 200.0082,143.8996 194.3092,165.1386" id="Fill-13" fill="#FFFFFF"></path>
                <path d="M164.567,184.8573 C152.613,193.2833 138.782,192.6973 133.675,183.5503 C128.568,174.4033 134.12,160.1573 146.074,151.7313 C158.028,143.3063 171.858,143.8913 176.965,153.0393 C182.072,162.1863 176.521,176.4313 164.567,184.8573" id="Fill-15" fill="#454545"></path>
                <path d="M220.9567,122.0331 C220.9567,122.0331 192.3187,131.9261 162.0777,153.2391 L170.3247,168.0121 C200.5657,146.6971 220.9567,122.0331 220.9567,122.0331" id="Fill-17" fill="#454545"></path>
                <path d="M77.7086,208.4061 C76.5556,208.4061 75.7916,207.5191 75.9806,206.3481 C76.1816,205.1171 77.3606,204.0381 78.6166,203.9381 L174.9636,196.2891 C176.2246,196.1921 177.0756,197.1071 176.8756,198.3391 C176.6766,199.5711 175.4966,200.6501 174.2396,200.7501 L77.8946,208.3981 C77.8306,208.4031 77.7696,208.4061 77.7086,208.4061" id="Fill-19" fill="#58585A"></path>
                <path d="M161.068,217.5819 C159.914,217.5819 159.151,216.6949 159.34,215.5249 C159.54,214.2929 160.72,213.2139 161.976,213.1139 L193.339,210.6239 C194.599,210.5219 195.452,211.4419 195.252,212.6739 C195.052,213.9059 193.873,214.9849 192.617,215.0849 L161.253,217.5739 C161.19,217.5789 161.129,217.5819 161.068,217.5819" id="Fill-21" fill="#58585A"></path>
                <g id="Group-25" transform="translate(0.000000, 249.774000)">
                    <mask id="mask-2" fill="white">
                        <use xlink:href="#path-1"></use>
                    </mask>
                    <g id="Clip-24"></g>
                    <path d="M1.7565,7.8841 C0.6025,7.8841 -0.1605,6.9971 0.0285,5.8261 C0.2285,4.5951 1.4085,3.5161 2.6645,3.4161 L34.0275,0.9261 C35.2815,0.8231 36.1405,1.7431 35.9415,2.9761 C35.7405,4.2071 34.5615,5.2861 33.3055,5.3861 L1.9415,7.8761 C1.8785,7.8811 1.8175,7.8841 1.7565,7.8841" id="Fill-23" fill="#58585A" mask="url(#mask-2)"></path>
                </g>
                <path d="M29.6627,239.3436 C28.5087,239.3436 27.7457,238.4566 27.9347,237.2866 C28.1357,236.0546 29.3147,234.9756 30.5707,234.8756 L124.5407,227.4146 C125.7977,227.3156 126.6527,228.2336 126.4527,229.4646 C126.2537,230.6976 125.0727,231.7766 123.8167,231.8756 L29.8477,239.3356 C29.7847,239.3406 29.7237,239.3436 29.6627,239.3436" id="Fill-26" fill="#58585A"></path>
                <polygon id="Fill-28" fill="#FFBF9D" points="258.984 216.6825 262.376 224.9975 282.534 219.3575 279.143 211.0415"></polygon>
                <polygon id="Fill-30" fill="#FFBF9D" points="158.6627 275.746 164.1517 282.859 180.5787 266.723 173.5957 261.076"></polygon>
                <path d="M165.5612,282.2909 L162.2352,271.8589 C162.1232,271.5099 161.7872,271.2949 161.4252,271.3419 L153.3812,272.3889 C152.5472,272.4969 152.0082,273.3859 152.2792,274.1879 C153.4062,277.5229 154.3812,279.9019 155.7292,284.1289 C156.5582,286.7289 158.7922,294.6689 159.9382,298.2599 C161.0582,301.7719 164.7372,301.0419 164.5852,299.4559 C163.9072,292.3459 164.2862,286.6619 165.4852,283.8689 C165.7012,283.3649 165.7242,282.8029 165.5612,282.2909" id="Fill-32" fill="#454545"></path>
                <path d="M263.3141,224.5468 L259.6111,215.4658 C259.4721,215.1258 259.1171,214.9278 258.7541,214.9888 L250.6941,216.3608 C249.8581,216.5028 249.3691,217.3818 249.7031,218.1608 C251.0931,221.4138 253.2161,226.0688 254.8951,230.1868 C256.8581,234.9998 257.1621,235.1678 259.4631,240.8138 C260.8561,244.2278 264.6931,243.7678 264.4231,242.2108 C263.1941,235.1248 262.3091,233.8498 263.4831,226.8148 C263.6111,226.0498 263.6071,225.2648 263.3141,224.5468" id="Fill-34" fill="#454545"></path>
                <path d="M351.5289,78.3768 C350.9079,81.2478 350.2349,84.3408 349.6689,87.3458 C349.1059,90.3758 348.5419,93.3988 348.0639,96.4258 C347.1079,102.4568 346.3239,108.5308 346.2279,114.3088 C346.2049,115.0348 346.1869,115.7578 346.2229,116.4478 L346.2799,118.4488 C346.2999,119.1668 346.3959,119.5278 346.5689,119.9188 C346.7519,120.3028 347.1919,120.7918 348.0029,121.2518 C348.7969,121.7208 349.8869,122.1438 351.1049,122.4428 C353.5569,123.0638 356.4499,123.2968 359.3849,123.3518 C360.8579,123.3598 362.3589,123.3558 363.8669,123.2898 C365.3529,123.2228 366.9319,123.0938 368.3349,122.9828 L370.0329,129.5078 C368.3529,130.1628 366.8119,130.6458 365.1669,131.1058 C363.5399,131.5598 361.8899,131.9718 360.1989,132.2698 C358.5079,132.5818 356.7819,132.8188 355.0029,132.9358 C353.2239,133.0578 351.3869,133.0868 349.4679,132.8938 C347.5519,132.6998 345.5349,132.3448 343.4229,131.5208 C341.3389,130.6958 339.0839,129.3318 337.2999,127.2068 C335.4869,125.1058 334.4429,122.3718 334.1019,119.9398 C334.0439,119.5958 334.0279,119.3998 334.0049,119.1798 L333.9359,118.5178 L333.7999,117.1908 C333.6949,116.2978 333.6499,115.4338 333.6139,114.5708 C333.2699,107.6348 333.8299,101.0268 334.6349,94.4848 C335.0879,91.2278 335.5569,87.9808 336.1929,84.7728 C336.8279,81.5378 337.4489,78.4098 338.3149,75.1048 L351.5289,78.3768 Z" id="Fill-36" fill="#FFBF9D"></path>
                <path d="M337.858,69.2167 C331.538,75.0287 332.763,90.9437 332.763,90.9437 L349.059,94.8037 C349.059,94.8037 353.541,86.1017 352.763,76.8427 C351.81,65.4937 344.766,62.8657 337.858,69.2167" id="Fill-38" fill="#525AC5"></path>
                <path d="M342.7487,76.5653 C340.2747,72.8593 337.4947,71.4053 335.9697,71.5823 C331.8037,78.4653 332.7637,90.9433 332.7637,90.9433 L344.3057,93.6783 C345.8867,90.1633 346.6257,82.3583 342.7487,76.5653" id="Fill-40" fill="#000000"></path>
                <path d="M366.1608,123.7997 L376.1668,118.2187 L377.5938,128.0887 C377.5938,128.0887 371.2078,133.6747 366.5588,129.0737 L366.1608,123.7997 Z" id="Fill-42" fill="#FFBF9D"></path>
                <polygon id="Fill-44" fill="#FFBF9D" points="382.2047 116.5497 382.7037 125.0267 377.5937 128.0887 376.1667 118.2187"></polygon>
                <polygon id="Fill-46" fill="#000000" points="282.528 219.3573 272.137 222.2663 268.746 213.9473 279.135 211.0393"></polygon>
                <polygon id="Fill-48" fill="#000000" points="173.5895 261.079 180.5755 266.727 172.8755 274.286 165.8895 268.638"></polygon>
                <path d="M305.4323,45.287 C296.1393,79.505 275.8043,109.526 272.7763,116.254 C279.0593,119.437 302.7453,131.385 315.6603,137.895 C343.1603,102.739 348.8993,76.279 349.9403,69.851 C350.0903,68.919 349.7483,67.987 349.0293,67.376 C348.0273,66.524 346.4143,65.195 344.4503,63.721 C343.3933,62.928 342.2413,62.097 341.0163,61.269 C340.3433,60.808 339.6473,60.358 338.9373,59.912 C334.3383,57.043 326.3113,53.219 320.7033,50.715 C319.5273,50.193 318.3143,49.687 317.1323,49.216 C316.0303,48.785 314.9403,48.376 313.9053,48.006 C309.2133,46.321 305.4323,45.287 305.4323,45.287" id="Fill-50" fill="#525AC5"></path>
                <path d="M311.6383,89.62 L312.0063,88.96 C312.3203,89.141 312.7083,89.308 313.2453,89.454 C314.0213,89.664 315.0593,89.563 315.9133,88.985 C316.7073,88.447 317.1313,88.42 317.5513,88.533 C317.9703,88.647 319.3993,89.034 319.3993,89.034 C319.9523,89.184 320.5143,88.867 320.6933,88.328 C320.5773,88.882 320.9013,89.435 321.4533,89.585 C321.4533,89.585 327.1323,91.125 327.3933,91.195 L326.1193,93.478 C325.9213,93.829 325.4553,94.031 325.0763,93.929 L322.7413,93.296 L318.3453,92.104 C318.2293,92.073 318.1143,92.075 318.0003,92.082 L311.9673,90.446 C311.5883,90.344 311.4413,89.974 311.6383,89.62 M329.7123,87.04 L329.4093,87.582 C329.0963,87.4 328.7073,87.233 328.1703,87.088 C327.3943,86.878 326.3563,86.978 325.5023,87.557 C324.7083,88.096 324.2843,88.122 323.8653,88.009 C323.4463,87.894 322.0173,87.508 322.0173,87.508 C321.4623,87.357 320.9013,87.675 320.7233,88.214 C320.8383,87.66 320.5143,87.106 319.9623,86.957 C319.9623,86.957 314.2883,85.419 314.0233,85.347 L315.2643,83.123 C315.4613,82.769 315.9293,82.566 316.3083,82.669 L329.3833,86.214 C329.7623,86.316 329.9093,86.686 329.7123,87.04 M334.9253,90.306 L332.9813,89.778 C332.2483,89.552 331.2023,89.289 330.7273,88.779 C330.5033,88.538 330.3113,88.308 330.0873,88.093 L330.4473,87.45 C330.6693,87.05 330.7013,86.594 330.5353,86.198 C330.3713,85.808 330.0323,85.518 329.6033,85.402 L324.2543,83.952 C324.3073,83.866 324.3633,83.782 324.3903,83.68 C324.5463,83.106 324.2073,82.516 323.6333,82.36 C323.6333,82.36 316.8553,80.339 316.5133,80.247 C316.0753,80.128 315.6343,80.115 315.2153,80.192 C314.7463,80.279 310.1363,82.398 310.1363,82.398 L307.7093,81.74 C307.5223,81.689 307.3293,81.8 307.2793,81.986 L306.2423,85.806 C306.1923,85.993 306.3033,86.186 306.4913,86.237 L308.4353,86.764 C309.1663,86.99 310.2133,87.253 310.6883,87.763 C310.9123,88.004 311.1053,88.233 311.3283,88.449 L310.9043,89.21 C310.6813,89.609 310.6493,90.066 310.8153,90.462 C310.9793,90.851 311.3193,91.141 311.7473,91.258 L317.1023,92.709 C317.0773,92.762 317.0403,92.805 317.0253,92.862 C316.8693,93.435 317.2083,94.026 317.7823,94.182 C317.7823,94.182 324.5613,96.203 324.9023,96.295 C325.3403,96.414 325.7823,96.427 326.2013,96.349 C326.6693,96.263 331.2803,94.143 331.2803,94.143 L333.7063,94.802 C333.8943,94.852 334.0863,94.742 334.1373,94.556 L335.1723,90.736 C335.2233,90.549 335.1133,90.355 334.9253,90.306" id="Fill-52" fill="#FFFFFF"></path>
                <path d="M332.8698,31.2743 C331.0598,37.7193 326.7858,49.0453 320.7078,50.8893 C322.2978,55.6663 324.6178,61.4293 331.4598,65.1883 C338.3008,68.9473 339.5008,63.5433 338.9368,60.0863 C333.1838,55.2243 335.8018,50.4573 339.2398,46.4743 L332.8698,31.2743 Z" id="Fill-54" fill="#FFBF9D"></path>
                <path d="M335.4645,37.4745 L339.2365,46.4665 C338.4195,47.4075 337.6545,48.3945 337.0425,49.4185 C334.7265,47.7965 332.6775,43.3225 333.7325,40.5725 C334.2585,39.2015 334.9455,37.9745 335.4645,37.4745" id="Fill-56" fill="#000000"></path>
                <path d="M350.6891,32.8114 C357.6511,33.8284 365.1031,16.8274 355.0461,14.0544 C348.2591,12.1844 348.0281,16.3144 346.9711,20.7594 C345.9141,25.2054 346.2781,32.1664 350.6891,32.8114" id="Fill-58" fill="#454545"></path>
                <path d="M334.2936,22.7401 C331.8606,31.3141 330.0016,36.2091 332.7276,42.0061 C336.8266,50.7251 348.5366,50.5211 353.4826,42.8461 C357.9346,35.9391 361.1646,23.0791 354.1226,16.8521 C347.1856,10.7191 336.7276,14.1661 334.2936,22.7401" id="Fill-60" fill="#FFBF9D"></path>
                <path d="M332.3395,28.8573 C339.3005,29.8753 345.1415,14.2543 335.0845,11.4823 C328.2975,9.6123 327.4255,13.5943 327.2205,17.9113 C327.0035,22.4743 327.9275,28.2133 332.3395,28.8573" id="Fill-62" fill="#454545"></path>
                <path d="M337.3463,16.872 C342.6653,18.902 361.9823,21.934 359.6443,14.065 C357.0593,5.372 345.4973,0 345.4973,0 C345.4973,0 353.5293,8.153 348.0673,6.123 C342.0193,3.874 339.9093,2.286 331.7533,0.232 C331.7533,0.232 341.0413,7.013 331.8773,4.824 C321.2533,2.286 315.1983,6.524 315.1983,6.524 C315.1983,6.524 325.4443,11.109 328.0943,20.639 C330.4533,29.121 337.3463,16.872 337.3463,16.872" id="Fill-64" fill="#454545"></path>
                <path d="M328.2584,28.9716 C328.4264,31.1996 329.5624,33.1216 330.9154,34.2726 C332.9504,36.0006 335.0364,34.3316 335.3654,31.7306 C335.6614,29.3876 334.9584,25.6646 332.4854,24.9506 C330.0484,24.2446 328.0664,26.4246 328.2584,28.9716" id="Fill-66" fill="#FFBF9D"></path>
                <path d="M287.6129,123.7489 L276.1379,153.0419 L321.8629,186.6379 C312.5939,199.8319 269.5929,210.5169 269.5929,210.5169 L275.3289,224.5999 C275.3289,224.5999 334.1539,224.3359 347.8879,199.3649 C361.1009,175.3529 315.6599,137.8949 315.6599,137.8949 L287.6129,123.7489 Z" id="Fill-68" fill="#58585A"></path>
                <path d="M290.9567,163.9335 L283.0107,158.0975 L294.3817,143.8895 C294.3817,143.8895 293.7697,155.8925 290.9567,163.9335" id="Fill-70" fill="#000000"></path>
                <path d="M290.9567,163.9335 L283.0107,158.0975 L294.3817,143.8895 C294.3817,143.8895 293.7697,155.8925 290.9567,163.9335" id="Fill-72" fill="#000000"></path>
                <path d="M305.5924,132.8183 C305.5924,132.8183 262.3154,194.2723 244.8594,213.9613 C225.7434,235.5213 177.4084,275.2823 177.4084,275.2823 L164.6184,264.9413 C164.6184,264.9413 206.7584,224.7173 223.2324,201.9603 C241.9974,176.0373 272.7764,116.2543 272.7764,116.2543 L305.5924,132.8183 Z" id="Fill-74" fill="#58585A"></path>
                <polygon id="Fill-76" fill="#58585A" points="178.7164 276.7968 163.6544 264.6198 167.2924 260.1208 184.3654 273.4398"></polygon>
                <polygon id="Fill-78" fill="#58585A" points="275.7223 226.5009 268.8803 209.7229 274.3013 207.5119 282.2353 226.1509"></polygon>
                <path d="M165.0465,283.7938 C165.2215,285.3518 165.6305,286.4488 166.1675,286.7758 C166.4025,286.9198 166.6685,286.9228 166.9805,286.7868 C167.1335,286.7208 167.1645,286.6378 167.1745,286.5728 C167.2675,285.9908 166.0435,284.6818 165.0465,283.7938 M164.9875,285.6578 C164.7355,284.8668 164.6255,283.9538 164.5775,283.3088 C164.5705,283.2228 164.6155,283.1388 164.6915,283.0968 C164.7665,283.0548 164.8585,283.0628 164.9225,283.1158 C165.2145,283.3568 167.7675,285.5078 167.5895,286.6288 C167.5625,286.8028 167.4605,287.0398 167.1345,287.1828 C166.6955,287.3738 166.2955,287.3618 165.9435,287.1478 C165.4995,286.8778 165.1955,286.3098 164.9875,285.6578" id="Fill-80" fill="#328FC9"></path>
                <path d="M168.5602,283.8368 C168.5072,283.6708 168.4012,283.5378 168.2372,283.4358 C167.5192,282.9848 166.0122,283.2308 165.2692,283.3898 C166.2092,284.0288 167.9552,284.6098 168.4762,284.3008 C168.5242,284.2728 168.6362,284.2058 168.5842,283.9308 C168.5782,283.8988 168.5702,283.8668 168.5602,283.8368 M164.5872,283.3578 C164.5752,283.3188 164.5742,283.2768 164.5842,283.2358 C164.6042,283.1588 164.6642,283.0988 164.7382,283.0778 C164.8442,283.0478 167.3452,282.3638 168.4642,283.0658 C168.7552,283.2488 168.9352,283.5078 168.9972,283.8358 C169.0922,284.3418 168.8382,284.5758 168.6782,284.6718 C167.7942,285.1948 165.3992,284.1578 164.6422,283.4458 C164.6162,283.4218 164.5972,283.3918 164.5872,283.3578" id="Fill-82" fill="#328FC9"></path>
                <path d="M265.6862,229.7138 C265.6472,228.9988 264.2172,227.4678 263.0502,226.4048 C263.4942,228.3658 264.1312,229.7018 264.7932,230.0288 C265.0272,230.1448 265.2652,230.1378 265.5242,230.0088 C265.6242,229.9578 265.6712,229.8958 265.6832,229.7988 C265.6862,229.7718 265.6872,229.7428 265.6862,229.7138 M262.4982,225.8338 C262.4952,225.7548 262.5352,225.6788 262.6042,225.6388 C262.6822,225.5928 262.7812,225.6018 262.8492,225.6598 C263.1992,225.9588 266.2562,228.6098 266.1062,229.8498 C266.0772,230.0888 265.9412,230.2758 265.7142,230.3888 L265.7132,230.3888 C265.3332,230.5788 264.9602,230.5858 264.6052,230.4098 C263.4262,229.8278 262.7822,227.3108 262.5022,225.8618 C262.5002,225.8528 262.4992,225.8438 262.4982,225.8338" id="Fill-84" fill="#328FC9"></path>
                <path d="M266.7966,226.8951 C266.7926,226.8381 266.7806,226.7661 266.7546,226.6781 C266.6636,226.3681 266.4746,226.1391 266.1776,225.9771 C265.3226,225.5151 263.8626,225.7651 263.1656,225.9261 C264.1986,226.6991 266.1626,227.4741 266.6896,227.1521 C266.7236,227.1331 266.8066,227.0821 266.7966,226.8951 L266.7966,226.8951 Z M262.4986,225.8341 C262.4976,225.8131 262.4996,225.7931 262.5046,225.7721 C262.5216,225.6991 262.5776,225.6401 262.6496,225.6191 C262.7486,225.5891 265.0796,224.9001 266.3796,225.6031 C266.7756,225.8181 267.0396,226.1391 267.1626,226.5571 C267.3286,227.1221 267.1176,227.3901 266.9116,227.5151 C266.0336,228.0521 263.4246,226.7961 262.5646,225.9761 C262.5246,225.9381 262.5016,225.8871 262.4986,225.8341 L262.4986,225.8341 Z" id="Fill-86" fill="#328FC9"></path>
                <path d="M304.6774,60.4989 L301.3294,57.8909 C300.1714,57.0039 298.9884,56.1429 297.7984,55.2899 C295.4264,53.5749 293.0024,51.9409 290.5624,50.3709 C288.1144,48.8109 285.6374,47.3239 283.1204,46.0069 C281.8644,45.3209 280.5944,44.7389 279.3314,44.1059 L277.4234,43.2719 L276.9454,43.0629 L276.7054,42.9589 C276.6434,42.9329 276.6884,42.9499 276.6754,42.9389 C276.6874,42.9209 276.5994,42.8929 276.4964,42.8549 C275.9944,42.7219 274.8694,42.6929 273.6894,42.8119 C272.4854,42.9379 271.1704,43.1769 269.8284,43.4949 C267.1344,44.1119 264.3364,44.9829 261.5404,45.9379 C255.9634,47.8829 250.2514,50.1399 244.7054,52.4649 L241.3184,46.6359 C246.4994,42.8739 251.8054,39.5359 257.5644,36.6119 C260.4434,35.1559 263.4104,33.8039 266.6304,32.6639 C268.2444,32.1039 269.9304,31.6019 271.7674,31.2119 C273.6244,30.8419 275.6074,30.5269 278.1714,30.7939 C278.8294,30.8789 279.5024,30.9869 280.2494,31.2019 L280.7704,31.3569 L281.0724,31.4579 L281.6754,31.6589 L284.0884,32.4739 C285.6534,33.0749 287.2364,33.6679 288.7354,34.3709 C291.7814,35.7159 294.7124,37.2159 297.5304,38.8649 C300.3654,40.4899 303.0984,42.2489 305.7524,44.1079 C307.0684,45.0559 308.3754,46.0129 309.6634,47.0049 C310.9814,48.0049 312.1764,48.9759 313.5444,50.1709 L304.6774,60.4989 Z" id="Fill-88" fill="#FFBF9D"></path>
                <path d="M318.6754,51.9891 C317.0554,46.9551 298.8694,38.9181 298.8694,38.9181 L291.6984,54.2421 C291.6984,54.2421 297.9124,59.0241 303.0904,62.6591 C312.9834,69.6031 321.8634,61.8891 318.6754,51.9891" id="Fill-90" fill="#525AC5"></path>
                <path d="M246.7067,50.2518 L242.3277,58.1838 L237.1007,50.2908 C237.1007,50.2908 241.9737,43.2768 244.8767,46.3648 L246.7067,50.2518 Z" id="Fill-92" fill="#FFBF9D"></path>
                <polygon id="Fill-94" fill="#FFBF9D" points="234.1539 60.1776 231.7089 53.4066 237.0999 50.2906 242.3279 58.1836"></polygon>
                <path d="M340.8405,37.8632 C342.2135,38.6242 343.8505,39.5662 346.0585,40.1282 C346.0585,40.1282 344.5055,42.0252 342.3005,40.8842 C340.0115,39.7002 340.8405,37.8632 340.8405,37.8632" id="Fill-96" fill="#FFFFFF"></path>
            </g>
        </g>
    </g>
</svg>