<?xml version="1.0" encoding="UTF-8"?>
<svg width="271px" height="243px" viewBox="0 0 271 243" version="1.1" xmlns="http://www.w3.org/2000/svg" xmlns:xlink="http://www.w3.org/1999/xlink">
    <title>Group 73</title>
    <defs>
        <polygon id="path-1" points="0.342231707 0.135923239 52.4715829 0.135923239 52.4715829 31.056338 0.342231707 31.056338"></polygon>
        <path d="M9.03291429,26.937931 C9.52971429,28.4358621 10.9224,29.4465517 12.492,29.4465517 L12.492,29.4465517 L26.4034286,29.4465517 C27.8588571,29.4465517 29.1754286,28.5744828 29.7504,27.2306897 L29.7504,27.2306897 L35.9753143,12.7086207 L0.108,0.0103448276" id="path-3"></path>
        <path d="M0.251805556,12.7086207 L6.47088889,27.2306897 C7.04747222,28.5744828 8.362,29.4465517 9.81630556,29.4465517 L9.81630556,29.4465517 L23.7180278,29.4465517 C25.2843611,29.4465517 26.677,28.4358621 27.1723889,26.937931 L27.1723889,26.937931 L36.0904167,0.0103448276" id="path-5"></path>
        <path d="M0.358566667,70.1599412 C0.358566667,108.788757 34.7737333,140.102162 77.2282333,140.102162 L77.2282333,140.102162 C119.682733,140.102162 154.098933,108.788757 154.098933,70.1599412 L154.098933,70.1599412 C154.098933,31.5331985 119.682733,0.219794118 77.2282333,0.219794118 L77.2282333,0.219794118 C34.7737333,0.219794118 0.358566667,31.5331985 0.358566667,70.1599412" id="path-7"></path>
        <path d="M0.554594595,1.40718182 L8.32816216,20.1751818 C8.89713514,21.5468182 10.2178919,22.4406818 11.6824324,22.4406818 L11.6824324,22.4406818 L25.7886486,22.4406818 C27.2388108,22.4406818 28.5492973,21.5645909 29.1264865,20.2107273 L29.1264865,20.2107273 L37.6292432,0.274954545 L37.2667027,0.256136364" id="path-9"></path>
        <polygon id="path-11" points="0.0157266246 0.496492727 149.445031 0.496492727 149.445031 74.1072887 0.0157266246 74.1072887"></polygon>
    </defs>
    <g id="Page-1" stroke="none" stroke-width="1" fill="none" fill-rule="evenodd">
        <g id="web" transform="translate(-879.000000, -1848.000000)">
            <g id="Group-73" transform="translate(879.000000, 1848.000000)">
                <g id="Group-22" transform="translate(7.000000, 95.000000)">
                    <path d="M169.080476,137.717985 C169.080476,137.717985 138.945559,84.4863866 145.899295,70.9530697 C152.853032,57.4197528 170.625407,81.7803444 170.625407,81.7803444 C170.625407,81.7803444 155.170944,32.156457 163.670641,10.502943 C172.170339,-11.1505711 186.852851,10.502943 187.624802,25.8416683 C188.397783,41.1793585 184.53391,67.3443232 184.53391,67.3443232 C184.53391,67.3443232 190.715695,13.2110556 205.396149,29.4504148 C220.077632,45.6908092 186.852851,99.825112 186.852851,99.825112 C186.852851,99.825112 209.260022,87.1924289 208.487041,103.433858 C207.71509,119.673218 181.443017,134.109239 181.443017,134.109239" id="Fill-1" fill="#F6F6F6"></path>
                    <path d="M169.336763,127.793518 C169.336763,127.793518 141.448739,101.629589 155.03508,89.9006451 C168.622451,78.1706662 175.772778,102.531258 175.772778,102.531258 C175.772778,102.531258 160.755754,27.6461451 185.0681,24.9401028 C209.380446,22.2319901 191.504115,89.9006451 191.504115,89.9006451 C191.504115,89.9006451 212.241812,61.0286028 210.811129,84.4864901 C209.380446,107.944377 178.633115,127.793518 178.633115,127.793518" id="Stroke-3" stroke="#C6C7C8" stroke-width="0.688"></path>
                    <line x1="183.034883" y1="123.031961" x2="164.186922" y2="102.494404" id="Stroke-5" stroke="#C6C7C8" stroke-width="0.688"></line>
                    <line x1="179.10771" y1="124.610968" x2="184.212881" y2="64.5801021" id="Stroke-7" stroke="#C6C7C8" stroke-width="0.688"></line>
                    <line x1="178.32279" y1="120.267015" x2="195.206907" y2="97.7553106" id="Stroke-9" stroke="#C6C7C8" stroke-width="0.688"></line>
                    <g id="Group-13" transform="translate(150.273171, 115.943662)">
                        <mask id="mask-2" fill="white">
                            <use xlink:href="#path-1"></use>
                        </mask>
                        <g id="Clip-12"></g>
                        <polygon id="Fill-11" fill="#58585A" mask="url(#mask-2)" points="52.4715829 0.135923239 0.342231707 0.135923239 5.55444634 31.0566486 47.258339 31.0566486"></polygon>
                    </g>
                    <path d="M44.5359244,10.816612 C44.5359244,10.816612 33.9200512,5.47802746 23.5697293,2.2750838 C13.218378,-0.92889507 1.01022683,2.0079993 0.74467561,5.47802746 C0.47912439,8.94805563 2.33798293,7.3465838 4.72588537,11.0836965 C7.11481707,14.8208092 6.0526122,23.6294218 9.50374878,31.636781 C12.9528268,39.6462106 23.304178,43.6493725 23.304178,43.6493725 L44.5359244,10.816612 Z" id="Fill-14" fill="#525AC5"></path>
                    <path d="M37.6356068,18.5575077 C37.6356068,18.5575077 21.7107678,8.41450775 12.4226507,4.94447958 C3.13350439,1.47445141 2.60343122,6.54595141 2.60343122,6.54595141 C2.60343122,6.54595141 7.6519922,8.11326127 7.6519922,14.1071345 C7.6519922,20.1010077 10.6327532,32.5173317 17.8685093,35.0867261 C25.1052946,37.6550852 37.6356068,18.5575077 37.6356068,18.5575077" id="Fill-16" fill="#5245C5"></path>
                    <path d="M155.732101,18.8759387 C157.429364,23.3718613 155.431555,28.304643 151.268164,29.8957627 C147.104774,31.4868824 142.354701,29.1317768 140.656408,24.6358542 C138.958116,20.1420021 140.957984,15.2081852 145.119316,13.6170655 C149.282706,12.026981 154.034838,14.3810514 155.732101,18.8759387" id="Fill-18" fill="#525AC5"></path>
                    <path d="M37.1622463,114.91901 L46.0932073,141.865559 C46.5893146,143.364545 47.9839732,144.374911 49.5536073,144.374911 L63.474461,144.374911 C64.9308756,144.374911 66.248339,143.503263 66.8247293,142.157489 L73.0528317,127.625193" id="Fill-20" fill="#525AC5"></path>
                </g>
                <g id="Group-25" transform="translate(44.000000, 209.000000)">
                    <mask id="mask-4" fill="white">
                        <use xlink:href="#path-3"></use>
                    </mask>
                    <g id="Clip-24"></g>
                    <path d="M4.58136,0.0105517241 L11.98296,26.9381379 C12.3954171,28.436069 13.5505029,29.4457241 14.8516457,29.4457241 L26.39016,29.4457241 C27.5977029,29.4457241 28.6890171,28.5746897 29.1673029,27.2298621 L34.3297029,12.7077931" id="Fill-23" fill="#5245C5" mask="url(#mask-4)"></path>
                </g>
                <g id="Group-30" transform="translate(75.000000, 209.000000)" fill="#525AC5">
                    <path d="M36.4715015,0.0105517241 L27.5264862,26.9381379 C27.0296554,28.436069 25.6339938,29.4457241 24.06104,29.4457241 L10.1209169,29.4457241 C8.66237846,29.4457241 7.34196308,28.5746897 6.76576308,27.2298621 L0.528578462,12.7077931" id="Fill-26"></path>
                    <path d="M66.0879754,0.0105517241 L57.1439908,26.9381379 C56.64716,28.436069 55.2504677,29.4457241 53.6785446,29.4457241 L39.7373908,29.4457241 C38.2788523,29.4457241 36.9594677,28.5746897 36.3822369,27.2298621 L30.1450523,12.7077931" id="Fill-28"></path>
                </g>
                <g id="Group-33" transform="translate(105.000000, 209.000000)">
                    <mask id="mask-6" fill="white">
                        <use xlink:href="#path-5"></use>
                    </mask>
                    <g id="Clip-32"></g>
                    <path d="M29.7744139,0.0105517241 L23.6766083,26.9381379 C23.3384694,28.436069 22.3867472,29.4457241 21.314775,29.4457241 L11.8109139,29.4457241 C10.8170528,29.4457241 9.91774722,28.5746897 9.52410833,27.2298621 L3.61849722,13.0108966" id="Fill-31" fill="#5245C5" mask="url(#mask-6)"></path>
                </g>
                <path d="M170,156.999481 C170,195.660031 135.749538,227 93.4994858,227 C51.2494337,227 17,195.660031 17,156.999481 C17,118.339969 51.2494337,87 93.4994858,87 C135.749538,87 170,118.339969 170,156.999481" id="Fill-34" fill="#525AC5"></path>
                <g id="Group-38" transform="translate(16.000000, 87.000000)">
                    <mask id="mask-8" fill="white">
                        <use xlink:href="#path-7"></use>
                    </mask>
                    <g id="Clip-37"></g>
                    <path d="M130.141513,22.3698574 C134.54868,31.1854676 137.004913,40.9787471 137.004913,51.2935191 C137.004913,89.9212985 102.588713,121.234703 60.1342133,121.234703 C43.5099467,121.234703 28.11948,116.433446 15.5438133,108.26996 C28.94718,126.318997 51.6340133,138.192026 77.3764133,138.192026 C118.570247,138.192026 151.963447,107.807563 151.963447,70.3274824 C151.963447,51.5993647 143.623413,34.6482618 130.141513,22.3698574" id="Fill-36" fill="#5245C5" mask="url(#mask-8)"></path>
                </g>
                <g id="Group-49" transform="translate(0.000000, 94.000000)">
                    <path d="M74.3773462,3.04725816 C80.5267596,1.59450638 86.9735096,0.821017021 93.6198558,0.821017021 C97.838125,0.821017021 101.975115,1.13165532 106.007163,1.73118723" id="Stroke-39" stroke="#5245C5" stroke-width="2.751" stroke-linecap="round" stroke-linejoin="round"></path>
                    <path d="M88.8816077,56.8032156 C89.3980885,56.8808752 89.9073673,56.9543929 90.4063577,57.0279106 C96.9271846,57.9732865 99.2215115,53.6875135 99.0332327,47.249017 C98.7677904,38.1711305 86.8300885,18.9467617 81.7887423,16.2773433 C76.748425,13.6079248 75.1568,17.345939 75.1568,17.345939 C75.1568,17.345939 75.8533288,17.824322 73.3810115,26.1204355 C72.2389923,29.9506057 67.9703096,43.3039106 72.1947519,49.2298539 C75.9304923,54.4661801 82.8721173,55.8951163 88.8816077,56.8032156" id="Fill-41" fill="#5245C5"></path>
                    <path d="M50.2396894,74.3241475 C42.7167663,88.0719631 27.7357375,87.2705163 16.6478625,84.4861617 C5.55895865,81.7028426 -1.73453173,72.6042468 0.358141346,64.1631688 C2.44978558,55.7210553 22.5915067,46.4081191 33.6793817,49.1924738 C44.7682856,51.9757929 55.7810548,64.1994099 50.2396894,74.3241475" id="Fill-43" fill="#525AC5"></path>
                    <path d="M40.7921038,75.0411007 C38.7004596,83.4821787 28.0148635,88.0682355 16.9269885,85.2859518 C5.83808462,82.5015972 -1.45540577,73.401966 0.637267308,64.9608879 C2.72994038,56.5187745 13.4145077,51.9327177 24.5034115,54.7160369 C35.5912865,57.5003915 42.8847769,66.6000227 40.7921038,75.0411007" id="Fill-45" fill="#5245C5"></path>
                    <path d="M69.4882692,124.613796 L77.2756058,143.201356 C77.8455865,144.560916 79.1686827,145.4452 80.6358173,145.4452 L94.7659904,145.4452 C96.2187212,145.4452 97.5325577,144.577484 98.1107692,143.236562 L106.629615,123.492391 L106.265404,123.472718" id="Fill-47" fill="#525AC5"></path>
                </g>
                <g id="Group-52" transform="translate(69.000000, 217.000000)">
                    <mask id="mask-10" fill="white">
                        <use xlink:href="#path-9"></use>
                    </mask>
                    <g id="Clip-51"></g>
                    <path d="M16.9810703,-0.946972727 C12.5022054,-0.946972727 7.28696216,-0.351063636 3.07204324,-1.3432 L10.3362054,20.1743455 C10.8065838,21.5470273 11.8983135,22.4398455 13.1071243,22.4398455 L24.7546378,22.4398455 C25.9521514,22.4398455 27.0356649,21.5637545 27.5122054,20.2098909 L34.5350162,-1.74047273 L31.6809081,-1.3432 C22.7283135,-0.353154545 22.9624757,-0.946972727 16.9810703,-0.946972727" id="Fill-50" fill="#5245C5" mask="url(#mask-10)"></path>
                </g>
                <g id="Group-72" transform="translate(71.000000, 0.000000)">
                    <g id="Group-55" transform="translate(49.461140, 0.000000)">
                        <mask id="mask-12" fill="white">
                            <use xlink:href="#path-11"></use>
                        </mask>
                        <g id="Clip-54"></g>
                        <path d="M149.445237,49.5545538 L109.516351,52.2555923 C109.516351,52.2555923 100.727356,56.7677077 92.7828228,58.9017462 C84.8382891,61.0368231 70.3968694,57.6337846 70.3968694,57.6337846 C70.3968694,57.6337846 61.3490715,66.5728615 55.5925067,67.4752846 C49.8369731,68.3777077 45.2702839,61.0004769 45.2702839,61.0004769 C45.2702839,61.0004769 40.1169057,61.6432846 36.0667917,60.5144769 C32.0177088,59.3867077 27.2272736,46.7849769 27.2272736,46.7849769 C27.2272736,46.7849769 27.8985119,62.4584769 26.5539731,66.3464769 C25.2104653,70.2334385 25.1403513,74.4340154 19.2817088,74.0871692 C13.4220352,73.7392846 12.6126311,66.4669385 12.6126311,66.4669385 C12.6126311,66.4669385 9.47606114,73.8607846 3.37511295,70.5979385 C-2.72480415,67.3340538 1.15311813,51.2794385 2.13574508,45.5346692 C3.11734093,39.7899 8.75429948,19.8119769 8.20266736,18.1805538 C7.65000415,16.5491308 9.11518031,11.6029385 14.1994756,10.1272846 C19.283771,8.65163077 53.3890715,0.548515385 56.508113,0.496492727 C59.6281855,0.443630769 100.728388,21.5337462 100.728388,21.5337462 L133.598445,12.4939385 L149.445237,49.5545538 Z" id="Fill-53" fill="#FFC09D" mask="url(#mask-12)"></path>
                    </g>
                    <polygon id="Fill-56" fill="#328FC9" points="7.34041917 64.3475423 5.39269378 68.4961962 22.1262223 76.9492731 63.935813 53.7271962 57.8864192 43.53885"></polygon>
                    <polygon id="Fill-58" fill="#AFD3EA" points="49.8909497 22.3983692 63.0909394 46.0389462 17.6622295 80.8886769 0.912203627 54.6104077"></polygon>
                    <polygon id="Fill-60" fill="#328FC9" points="3.82533679 52.6952769 18.9039689 75.7512 59.6793782 45.0657 46.8742953 24.3816231"></polygon>
                    <path d="M38.8701648,33.7454308 C38.1886155,32.7453923 37.3049731,31.9499308 36.2945067,31.3413923 L16.1759161,44.5724308 C16.3192373,45.9608538 16.7729161,47.2828154 17.5689161,48.4521231 C20.7302321,53.0982 28.0622995,53.5717385 33.944657,49.5103154 C39.8270145,45.4488923 42.0314808,38.3915077 38.8701648,33.7454308" id="Fill-62" fill="#EBB900"></path>
                    <path d="M84.7546155,13.3909615 C84.7546155,13.3909615 84.0307917,19.7432308 81.4448228,23.7361154 C78.859885,27.7279615 75.0861026,29.9315769 72.035113,30.8163462 C68.9851544,31.7021538 66.1249161,32.3615769 62.3501026,34.5662308 C58.5763202,36.7698462 54.5612632,41.0919231 51.0957762,42.012 C47.6323513,42.9310385 44.8411959,44.4233077 45.3752995,48.3632308 C45.9094031,52.3041923 51.9237399,57.0416538 59.9878798,53.8483846 C68.0540819,50.6551154 75.3779005,46.0557692 79.2898487,45.5178462 C83.202828,44.9799231 94.0591544,45.3278077 94.0591544,45.3278077 C94.0591544,45.3278077 113.842641,57.9295385 119.858009,57.6335769 C125.872346,57.3396923 135.98732,51.2480769 135.98732,51.2480769" id="Fill-64" fill="#F9BF9D"></path>
                    <path d="M68.3307228,18.7536808 C68.3307228,18.7536808 71.5013187,26.8765269 78.7921425,26.8941808" id="Stroke-66" stroke="#FF9B6C" stroke-width="0.782" stroke-linecap="round" stroke-linejoin="round"></path>
                    <line x1="62.0736679" y1="66.4671462" x2="65.2628233" y2="52.1478" id="Stroke-68" stroke="#FF9B6C" stroke-width="0.782" stroke-linecap="round" stroke-linejoin="round"></line>
                    <path d="M94.7312176,61.0010055 C94.7312176,61.0010055 101.607544,61.0529192 107.639409,53.4160731" id="Stroke-70" stroke="#FF9B6C" stroke-width="0.782" stroke-linecap="round" stroke-linejoin="round"></path>
                </g>
            </g>
        </g>
    </g>
</svg>