<?xml version="1.0" encoding="UTF-8"?>
<svg width="428px" height="250px" viewBox="0 0 428 250" version="1.1" xmlns="http://www.w3.org/2000/svg" xmlns:xlink="http://www.w3.org/1999/xlink">
    <title>Group 132</title>
    <defs>
        <path d="M7.763,11.38 C3.999,13.158 0.699,14.223 0.699,17.728 L0.699,17.728 L0.699,35.185 C0.699,47.307 3.876,59.319 10.41,69.924 L10.41,69.924 C15.909,78.849 24.424,88.038 37.533,93.879 L37.533,93.879 C49.582,89.965 58.577,79.53 64.076,70.605 L64.076,70.605 C70.611,59.999 73.787,47.988 73.787,35.865 L73.787,35.865 L73.787,20.168 C73.787,15.169 71.137,12.727 67.012,11.525 L67.012,11.525 L37.242,0.834 L7.763,11.38 Z" id="path-1"></path>
        <polygon id="path-3" points="0 0 50 0 50 23 0 23"></polygon>
        <polygon id="path-5" points="0.0007 0.2238 427.232 0.2238 427.232 1 0.0007 1"></polygon>
        <polygon id="path-7" points="0.6229 0.154 55.9139 0.154 55.9139 55.4439 0.6229 55.4439"></polygon>
    </defs>
    <g id="Page-1" stroke="none" stroke-width="1" fill="none" fill-rule="evenodd">
        <g id="web" transform="translate(-782.000000, -1041.000000)">
            <g id="Group-132" transform="translate(782.000000, 1041.000000)">
                <g id="Group-13" transform="translate(312.000000, 148.846000)">
                    <path d="M12.4856,93.8121 C27.5436,103.4501 46.2006,99.2411 61.5836,92.1561 C64.1516,90.9721 67.0196,90.1091 68.7776,87.8951 C70.5366,85.6791 70.8676,82.0951 68.7756,80.1931 C67.0426,78.6151 64.4316,78.7051 62.1086,78.3891 C59.0196,77.9701 56.0556,76.6571 53.6716,74.6491 C52.1026,73.3301 50.7036,71.4721 50.9096,69.4331 C51.1926,66.6361 54.1836,65.0651 56.7836,63.9941 C61.6256,61.9981 66.4666,60.0011 71.3096,58.0061 C73.9076,56.9351 76.5566,55.8331 78.6736,53.9841 C80.7896,52.1361 82.3156,49.3741 81.9576,46.5861 C81.5966,43.8001 78.8786,41.3081 76.1206,41.8451 C74.9716,42.0691 73.9676,42.7471 72.8626,43.1251 C71.7566,43.5031 70.3516,43.4951 69.6166,42.5861 C68.8736,41.6661 69.1676,40.3071 69.5936,39.2051 C71.0726,35.3971 73.6706,32.1441 76.2996,29.0201 C78.9286,25.8951 81.6596,22.7881 83.4796,19.1321 C85.3006,15.4761 86.1316,11.1261 84.7626,7.2801 C83.3926,3.4321 79.4186,0.3881 75.3756,0.9671 C71.3226,1.5471 68.5236,5.2621 66.5536,8.8521 C63.6316,14.1781 61.4846,19.9291 60.2016,25.8681 C59.9696,26.9391 59.7196,28.0981 58.8936,28.8181 C57.4066,30.1121 54.9926,29.1741 53.6986,27.6851 C52.2326,25.9981 51.5416,23.7911 50.4426,21.8441 C49.3436,19.8971 47.5216,18.0531 45.2866,18.0811 C42.1846,18.1181 40.3526,21.5261 39.4626,24.4971 C37.6796,30.4461 36.9256,36.7021 37.2426,42.9041 C37.3556,45.1281 37.5976,47.4161 36.9136,49.5351 C36.2276,51.6551 34.2946,53.5711 32.0746,53.3971 C29.8506,53.2221 28.2526,51.0521 27.7726,48.8741 C27.2926,46.6971 27.6156,44.4311 27.5226,42.2031 C27.3506,38.0321 25.1466,33.4761 21.0986,32.4581 C18.4376,31.7881 15.5636,32.8361 13.4756,34.6161 C11.3866,36.3961 9.9646,38.8251 8.7446,41.2821 C4.4776,49.8741 2.1986,59.5381 2.8506,69.1071 C3.5046,78.6771 5.9886,86.7551 12.4856,93.8121" id="Fill-1" fill="#ECECEC"></path>
                    <path d="M0.9856,98.8444 C6.9236,95.6744 13.6436,91.2354 20.5266,85.5894 C27.4226,79.9564 34.4676,73.1454 41.5946,65.7644 C43.3696,63.9114 45.1226,62.0824 46.8506,60.2784 C48.5726,58.4744 50.2786,56.6864 51.8396,54.8314 C54.9766,51.1364 57.7146,47.3394 60.1996,43.6524 C62.6876,39.9634 64.9146,36.3704 66.9736,32.9954 C69.0256,29.6154 70.8796,26.4284 72.4456,23.4494 C75.5986,17.4994 77.5746,12.4024 78.7916,8.8454 C79.4046,7.0664 79.8366,5.6714 80.1176,4.7214 C80.2516,4.2604 80.3556,3.9024 80.4306,3.6404 C80.4996,3.3964 80.5236,3.2674 80.5236,3.2674 C80.5236,3.2674 80.4706,3.3874 80.3896,3.6274 C80.3036,3.8854 80.1866,4.2404 80.0366,4.6964 C79.7276,5.6364 79.2716,7.0234 78.6356,8.7904 C77.3726,12.3254 75.3606,17.3914 72.1796,23.3084 C70.6006,26.2724 68.7356,29.4444 66.6736,32.8124 C64.6016,36.1774 62.3666,39.7584 59.8756,43.4324 C57.3856,47.1074 54.6506,50.8874 51.5226,54.5624 C49.9656,56.4064 48.2716,58.1804 46.5446,59.9874 C44.8166,61.7894 43.0636,63.6174 41.2906,65.4694 C34.1676,72.8454 27.1436,79.6524 20.2786,85.2874 C13.4256,90.9354 6.7456,95.3864 0.8426,98.5804" id="Fill-3" fill="#E1E1E1"></path>
                    <path d="M51.8361131,54.7174 C51.8432,54.7454 52.2732,54.6634 53.0452,54.4904 C53.8172,54.3214 54.9282,54.0444 56.2932,53.6844 C59.0272,52.9644 62.7692,51.8464 66.8922,50.6034 C71.0182,49.3594 74.7702,48.3084 77.5122,47.6504 C78.8832,47.3164 79.9952,47.0594 80.7672,46.8944 C81.5372,46.7234 81.9612,46.6154 81.9562437,46.5864 C81.9512,46.5584 81.5172,46.6114 80.7352,46.7314 C79.9532,46.8474 78.8272,47.0604 77.4452,47.3574 C74.6772,47.9424 70.8982,48.9504 66.7712,50.1964 C62.6852,51.4344 58.9872,52.5544 56.2132,53.3954 C54.9152,53.7744 53.8362,54.0884 53.0032,54.3314 C52.2452,54.5524 51.8292,54.6884 51.8361131,54.7174" id="Fill-5" fill="#E1E1E1"></path>
                    <path d="M43.8763,18.3569475 C43.8623,18.3631 43.8953,18.4901 43.9663,18.7281 C44.0583,19.0131 44.1683,19.3531 44.3013,19.7631 C44.5953,20.6601 45.0233,21.9551 45.5003,23.5741 C46.4803,26.7991 47.6703,31.3071 48.7643,36.3361 C49.8483,41.3681 50.6333,45.9631 51.1003,49.3031 C51.3453,50.9721 51.5063,52.3281 51.6213,53.2641 C51.6763,53.6911 51.7213,54.0471 51.7593,54.3431 C51.7953,54.5891 51.8213,54.7171 51.8363,54.7171 C51.8513,54.7151 51.8533,54.5851 51.8453,54.3361 C51.8283,54.0381 51.8103,53.6791 51.7853,53.2491 C51.7213,52.3061 51.6053,50.9421 51.3973,49.2641 C51.0053,45.9071 50.2663,41.2911 49.1783,36.2461 C48.0833,31.2051 46.8423,26.6971 45.7863,23.4841 C45.2723,21.8741 44.8003,20.5881 44.4563,19.7081 C44.2943,19.3081 44.1593,18.9761 44.0473,18.6991 C43.9483,18.4701 43.8913,18.3521 43.8763,18.3569475" id="Fill-7" fill="#E1E1E1"></path>
                    <path d="M20.9944,84.9528 C20.9944,84.9678 21.1674,84.9838 21.4974,85.0038 C21.8744,85.0188 22.3534,85.0408 22.9454,85.0658 C24.2034,85.1168 26.0244,85.1448 28.2744,85.1518 C32.7744,85.1698 38.9904,85.0038 45.8484,84.7328 C52.7064,84.4628 58.9144,84.2488 63.4084,84.1898 C65.6164,84.1698 67.4214,84.1528 68.7334,84.1408 C69.3254,84.1348 69.8054,84.1288 70.1814,84.1238 C70.5124,84.1148 70.6864,84.1038 70.6864,84.0898 C70.6864,84.0748 70.5144,84.0568 70.1824,84.0388 C69.8074,84.0218 69.3274,84.0018 68.7354,83.9748 C67.4774,83.9258 65.6574,83.8968 63.4074,83.8908 C58.9064,83.8718 52.6904,84.0378 45.8314,84.3088 C38.9744,84.5788 32.7674,84.7928 28.2724,84.8518 C26.0654,84.8718 24.2604,84.8888 22.9474,84.9008 C22.3554,84.9078 21.8764,84.9138 21.4994,84.9188 C21.1694,84.9268 20.9944,84.9378 20.9944,84.9528" id="Fill-9" fill="#E1E1E1"></path>
                    <path d="M16.4114,34.1206831 C16.3974,34.1227 16.4024,34.3017 16.4274,34.6407 C16.4594,35.0237 16.5014,35.5157 16.5534,36.1227 C16.6754,37.4627 16.8444,39.3087 17.0514,41.5687 C17.4664,46.1667 17.9614,52.5247 18.4914,59.5517 C19.0214,66.5797 19.5634,72.9397 20.0564,77.5337 C20.3004,79.8327 20.5154,81.6877 20.6884,82.9687 C20.7724,83.5727 20.8414,84.0607 20.8934,84.4417 C20.9454,84.7787 20.9794,84.9537 20.9944,84.9527043 C21.0094,84.9507 21.0034,84.7717 20.9784,84.4327 C20.9464,84.0497 20.9044,83.5587 20.8524,82.9507 C20.7304,81.6117 20.5604,79.7657 20.3534,77.5057 C19.9384,72.9067 19.4454,66.5477 18.9144,59.5187 C18.3834,52.4927 17.8414,46.1337 17.3494,41.5397 C17.1044,39.2417 16.8904,37.3857 16.7174,36.1047 C16.6334,35.5007 16.5654,35.0127 16.5124,34.6307 C16.4604,34.2947 16.4264,34.1187 16.4114,34.1206831" id="Fill-11" fill="#E1E1E1"></path>
                </g>
                <g id="Group-16" transform="translate(43.000000, 60.846000)">
                    <mask id="mask-2" fill="white">
                        <use xlink:href="#path-1"></use>
                    </mask>
                    <g id="Clip-15"></g>
                    <path d="M7.763,11.38 C3.999,13.158 0.699,14.223 0.699,17.728 L0.699,17.728 L0.699,35.185 C0.699,47.307 3.876,59.319 10.41,69.924 L10.41,69.924 C15.909,78.849 24.424,88.038 37.533,93.879 L37.533,93.879 C49.582,89.965 58.577,79.53 64.076,70.605 L64.076,70.605 C70.611,59.999 73.787,47.988 73.787,35.865 L73.787,35.865 L73.787,20.168 C73.787,15.169 71.137,12.727 67.012,11.525 L67.012,11.525 L37.242,0.834 L7.763,11.38 Z" id="Fill-14" mask="url(#mask-2)"></path>
                </g>
                <g id="Group-131" transform="translate(0.000000, 0.846000)">
                    <path d="M80.5325,143.7487 C70.1615,139.1277 63.4245,131.7027 59.0735,124.6417 C53.9035,116.2507 51.3905,106.7467 51.3905,97.1557 L51.3905,84.9107 C51.3905,82.1377 53.0635,79.5397 56.3865,77.9887 L80.2485,69.0657 L80.2425,60.8347 L50.7625,71.3807 C47.6695,72.7317 43.6985,74.2227 43.6985,77.7277 L43.6985,95.1847 C43.6985,107.3067 46.8755,119.3187 53.4095,129.9247 C58.9085,138.8497 67.4245,148.0377 80.5325,153.8787 L80.5325,143.7487 Z" id="Fill-17" fill="#7037CD"></path>
                    <path d="M80.5325,153.8786 C82.6205,153.1796 84.5385,152.3736 86.3815,151.3706 C91.3225,148.6786 95.5395,144.9816 98.7565,141.6356 C102.3555,137.8926 105.0375,133.8476 107.3655,130.0686 C113.8995,119.4636 117.0765,107.4506 116.7865,94.9936 L116.804701,80.5816 C116.7865,73.4056 113.1055,72.8766 110.0115,71.5246 L80.2425,60.8346 L80.2485,69.0656 L104.3885,78.1326 C107.7115,79.6836 109.3845,82.2816 109.3845,85.0556 L109.3845,97.3006 C109.3845,106.8916 106.8715,116.3956 101.7015,124.7856 C97.3505,131.8466 90.9025,139.1276 80.5325,143.7486 L80.5325,153.8786 Z" id="Fill-19" fill="#7037CD"></path>
                    <path d="M86.4749,96.3502 L74.3479,96.3502 L74.3799,94.0142 C74.3799,90.6702 77.1009,87.9512 80.4449,87.9512 C83.7869,87.9512 86.5079,90.6702 86.5079,94.0022 L86.4749,96.3502 Z M82.5049,111.1132 L78.7319,111.1132 L79.3219,108.3872 C78.6679,107.9822 78.2319,107.2602 78.2319,106.4342 C78.2319,105.1632 79.2619,104.1342 80.5329,104.1342 C81.8029,104.1342 82.8319,105.1632 82.8319,106.4342 C82.8319,107.2302 82.4279,107.9312 81.8149,108.3442 C82.0809,109.4012 82.5049,111.1132 82.5049,111.1132 L82.5049,111.1132 Z M88.1399,96.3712 L88.1729,94.0142 C88.1729,89.7522 84.7059,86.2862 80.4449,86.2862 C76.1829,86.2862 72.7149,89.7522 72.7149,94.0022 L72.6819,96.4032 C70.5959,96.7112 68.9949,98.5032 68.9949,100.6752 L68.9949,114.5712 C68.9949,116.9592 70.9299,118.8962 73.3189,118.8962 L87.7459,118.8962 C90.1339,118.8962 92.0709,116.9592 92.0709,114.5712 L92.0709,100.6752 C92.0709,98.4202 90.3429,96.5702 88.1399,96.3712 L88.1399,96.3712 Z" id="Fill-21" fill="#7037CD"></path>
                    <path d="M75.5484,153.8651 L90.7304,125.9811 C105.9124,106.5481 138.0474,107.7991 138.0474,107.7991 C138.0474,107.7991 159.9164,105.6941 185.4414,110.6611 C210.9674,115.6281 208.9114,132.5211 208.9114,132.5211 L212.3304,195.0931 L215.9964,246.0431 L121.8484,247.9401 L105.7444,184.1911 L75.5484,153.8651 Z" id="Fill-23" fill="#525AC5"></path>
                    <path d="M156.4602,245.0065 L72.1352,246.0395 C51.8712,246.2885 38.3532,225.2215 47.0222,206.9035 L83.0772,140.0365 L115.9202,162.2385 L93.5182,208.7335 L161.7822,209.9505 L156.4602,245.0065 Z" id="Fill-25" fill="#525AC5"></path>
                    <path d="M205.8967,122.3639 L273.5667,226.8429 L234.0877,229.4239 C234.0877,229.4239 210.5117,192.2699 211.0447,193.0399 C212.0087,194.4299 205.8967,122.3639 205.8967,122.3639" id="Fill-27" fill="#525AC5"></path>
                    <path d="M111.5149,171.844078 C111.5469,171.8594 111.3389,172.3974 110.9339,173.3564 C110.5299,174.3154 109.9239,175.6944 109.1609,177.3904 C107.6329,180.7834 105.4569,185.4434 102.9559,190.5404 C100.4529,195.6394 98.0989,200.2104 96.3499,203.4954 C95.4749,205.1384 94.7549,206.4604 94.2439,207.3664 C93.7329,208.2744 93.4359,208.7674 93.4039,208.7504 C93.3719,208.7344 93.6089,208.2084 94.0639,207.2734 C94.5669,206.2594 95.2269,204.9304 96.0229,203.3264 C97.7159,199.9174 99.9829,195.3554 102.4899,190.3114 C104.9449,185.2444 107.1659,180.6604 108.8269,177.2354 C109.6079,175.6234 110.2559,174.2894 110.7489,173.2714 C111.2109,172.3384 111.4819,171.8294 111.5149,171.844078" id="Fill-29" fill="#FFFFFF"></path>
                    <path d="M156.4602,245.006513 C156.4532,245.006513 156.4542,244.9465 156.4612,244.8315 C156.4732,244.6925 156.4862,244.5255 156.5032,244.3175 C156.5522,243.8325 156.6182,243.1695 156.7032,242.3235 C156.8982,240.5485 157.1772,238.0125 157.5282,234.8215 C158.2742,228.3595 159.3262,219.2515 160.5652,208.5235 L160.8022,208.7895 C153.2162,208.7965 144.7742,208.8035 135.8932,208.8115 C118.8872,208.7815 103.4952,208.7545 92.3142,208.7355 C86.7642,208.7005 82.2612,208.6725 79.1062,208.6525 C77.5752,208.6315 76.3722,208.6145 75.5172,208.6035 C75.1292,208.5925 74.8212,208.5845 74.5832,208.5775 C74.3722,208.5685 74.2652,208.5605 74.2652,208.5515 C74.2652,208.5425 74.3722,208.5325 74.5832,208.5245 C74.8212,208.5185 75.1292,208.5095 75.5172,208.4985 C76.3722,208.4865 77.5752,208.4705 79.1062,208.4495 C82.2612,208.4305 86.7642,208.4025 92.3142,208.3665 C103.4952,208.3475 118.8872,208.3205 135.8932,208.2905 C144.7742,208.2985 153.2162,208.3065 160.8022,208.3135 L161.0712,208.3135 L161.0392,208.5795 C159.7232,219.2995 158.6062,228.3985 157.8142,234.8565 C157.4052,238.0395 157.0812,240.5695 156.8552,242.3425 C156.7382,243.1835 156.6472,243.8445 156.5802,244.3265 C156.5482,244.5325 156.5222,244.6975 156.5002,244.8355 C156.4812,244.9495 156.4672,245.0075 156.4602,245.006513" id="Fill-31" fill="#FFFFFF"></path>
                    <g id="Group-3" transform="translate(140.000000, 156.154000)">
                        <mask id="mask-4" fill="white">
                            <use xlink:href="#path-3"></use>
                        </mask>
                        <g id="Clip-2"></g>
                        <path d="M10.6206735,17.8578375 L10.9323172,16.5939911 C11.530592,16.7547904 12.2534792,16.8531832 13.202156,16.8531832 C14.5778501,16.8531832 16.2476114,16.2149966 17.3988679,14.8623234 C18.4696784,13.6043988 19.1587648,13.3670717 19.9021578,13.3670717 L23.1790363,13.3670717 C24.1092353,13.3670717 24.8758383,12.6685284 25.000676,11.7629502 C25.1291192,12.6642009 25.8934688,13.3570502 26.8209637,13.3570502 L37.3542057,13.3570502 L36.2705509,17.7498787 C36.0988427,18.4238238 35.4212486,18.9699949 34.7515413,18.9699949 L30.6093615,18.9699949 L22.8137619,18.9699949 C22.5879723,18.9699949 22.3725483,19.0130418 22.172898,19.088203 L11.5346481,19.088203 C10.8620115,19.088203 10.4530213,18.5372488 10.6206735,17.8578375 M39.3247945,5.36855708 L39.0688095,6.40646445 C38.4703093,6.24543735 37.7471968,6.14704455 36.797844,6.14704455 C35.4223753,6.14704455 33.7526139,6.78523118 32.6011321,8.13767664 C31.5305469,9.39560124 30.8412352,9.63315608 30.0980675,9.63315608 L26.8209637,9.63315608 C25.8907647,9.63315608 25.1241617,10.3314716 24.9995493,11.2370498 C24.8711061,10.3357991 24.1065312,9.6429498 23.1790363,9.6429498 L12.646921,9.6429498 L13.7015071,5.36855708 C13.8691592,4.68891794 14.5499081,4.13796382 15.2225447,4.13796382 L38.4108199,4.13796382 C39.0834565,4.13796382 39.4924466,4.68891794 39.3247945,5.36855708 M49.3983451,8.46109741 L45.9497584,8.46109741 C44.6391873,8.41440639 42.793211,8.44902607 41.7794112,7.81266154 C41.3012421,7.5124724 40.8818864,7.21501639 40.4158855,6.95605201 L40.720769,5.720448 C40.9102791,4.95220978 40.759302,4.17577216 40.3065961,3.58997059 C39.8615518,3.01419051 39.1704373,2.6839369 38.4108199,2.6839369 L28.9542472,2.6839369 C29.0011177,2.51949338 29.027933,2.34639494 29.027933,2.16691918 C29.027933,1.13880554 28.2036433,0.305883168 27.1864634,0.305883168 C27.1864634,0.305883168 15.0828346,0 14.4773489,0 C13.7006057,0 12.9650995,0.178564709 12.3086873,0.496746977 C11.5727304,0.854104156 4.90630408,6.47889249 4.90630408,6.47889249 L0.601654889,6.47889249 C0.269956014,6.47889249 0,6.74970044 0,7.08519256 L0,13.9310082 C0,14.2662725 0.269956014,14.5391303 0.601654889,14.5391303 L4.0504669,14.5391303 C5.361038,14.5855936 7.20678901,14.5507462 8.22058877,15.1873385 C8.69920861,15.4879831 9.11878966,15.7852114 9.5852412,16.0444035 L9.22469895,17.5059465 C9.03518892,18.2741848 9.18616599,19.0506224 9.63887186,19.636424 C10.0839162,20.212204 10.7750306,20.5424576 11.5346481,20.5424576 L20.9970796,20.5424576 C20.9822072,20.637434 20.9722923,20.7340047 20.9722923,20.8330808 C20.9722923,21.8611945 21.7965821,22.6941168 22.8137619,22.6941168 C22.8137619,22.6941168 34.9173908,23 35.5226511,23 C36.2993943,23 37.0349005,22.8216631 37.6913127,22.503253 C38.427495,22.1461236 45.0939213,16.5211075 45.0939213,16.5211075 L49.3983451,16.5211075 C49.7302693,16.5211075 50,16.2500718 50,15.9148074 L50,9.06921957 C50,8.73372746 49.7302693,8.46109741 49.3983451,8.46109741" id="Fill-1" fill="#FFFFFF" mask="url(#mask-4)"></path>
                    </g>
                    <path d="M94.1116,209.4459 C94.0406,209.4909 93.4656,208.6329 92.4286,207.3389 C91.3946,206.0439 89.8566,204.3419 87.9296,202.7099 C85.9976,201.0829 84.0606,199.8509 82.6116,199.0489 C81.1626,198.2419 80.2206,197.8199 80.2526,197.7419 C80.2736,197.6859 81.2696,197.9899 82.7826,198.7209 C84.2936,199.4499 86.2996,200.6549 88.2656,202.3119 C90.2266,203.9719 91.7516,205.7479 92.7216,207.1159 C93.6976,208.4839 94.1636,209.4159 94.1116,209.4459" id="Fill-33" fill="#FFFFFF"></path>
                    <path d="M213.7288,216.06211 C213.7108,216.0641 213.6658,215.7661 213.5958,215.1981 C213.5258,214.5831 213.4318,213.7531 213.3138,212.7091 C213.0828,210.5461 212.7728,207.4151 212.4388,203.5411 C211.7548,195.7941 210.9658,185.0801 210.2628,173.2361 C209.5618,161.3871 209.0728,150.6551 208.7918,142.8831 C208.6468,138.9981 208.5548,135.8531 208.5058,133.6791 C208.4888,132.6281 208.4748,131.7931 208.4648,131.1751 C208.4608,130.6031 208.4678,130.3021 208.4858,130.301098 C208.5028,130.3001 208.5318,130.6001 208.5698,131.1711 C208.6038,131.7891 208.6508,132.6221 208.7088,133.6711 C208.8178,135.8921 208.9708,139.0211 209.1588,142.8681 C209.5348,150.6331 210.0828,161.3601 210.7828,173.2051 C211.4858,185.0451 212.2158,195.7591 212.8058,203.5111 C213.1028,207.3501 213.3438,210.4731 213.5148,212.6911 C213.5928,213.7391 213.6548,214.5711 213.7008,215.1881 C213.7368,215.7591 213.7478,216.0601 213.7288,216.06211" id="Fill-35" fill="#FFFFFF"></path>
                    <path d="M159.2874,221.2741 C159.2874,221.2741 176.1124,216.4261 181.6804,215.0071 C183.8504,214.4541 193.1434,219.3561 199.5624,223.4321 C199.5624,223.4321 208.4024,228.6721 207.6874,230.2881 C206.9004,232.0651 203.6404,231.7011 198.4424,229.2561 C198.4424,229.2561 200.2564,234.5231 196.6954,234.4101 C196.6954,234.4101 198.4624,240.1021 195.1254,240.6911 C191.7894,241.2801 191.0044,234.0171 188.0594,233.6251 C185.1154,233.2321 179.0304,232.8391 179.0304,232.8391 C179.0304,232.8391 173.9634,241.2311 170.0384,241.8201 C166.1124,242.4091 157.0164,241.3481 157.0164,241.3481 L159.2874,221.2741 Z" id="Fill-37" fill="#FFC09D"></path>
                    <path d="M188.0042,222.4342 C188.0802,222.3132 190.1852,223.5012 192.7032,225.0902 C195.2222,226.6792 197.2012,228.0652 197.1252,228.1872 C197.0482,228.3082 194.9442,227.1202 192.4252,225.5312 C189.9062,223.9422 187.9272,222.5562 188.0042,222.4342" id="Fill-39" fill="#FF9B6C"></path>
                    <path d="M187.009,225.6696 C187.069,225.5396 189.567,226.5646 192.587,227.9576 C195.609,229.3536 198.009,230.5886 197.948,230.7196 C197.888,230.8506 195.391,229.8256 192.369,228.4316 C189.349,227.0366 186.948,225.8006 187.009,225.6696" id="Fill-41" fill="#FF9B6C"></path>
                    <path d="M188.8098,233.5153 C188.8298,233.3723 190.5298,233.4883 192.6068,233.7723 C194.6848,234.0573 196.3538,234.4043 196.3338,234.5463 C196.3148,234.6883 194.6148,234.5733 192.5368,234.2883 C190.4588,234.0033 188.7898,233.6583 188.8098,233.5153" id="Fill-43" fill="#FF9B6C"></path>
                    <path d="M144.9114,47.4303 C145.3034,48.7183 144.8564,50.2183 143.8264,51.0833 C142.7964,51.9493 141.2404,52.1273 140.0414,51.5193 C137.7614,50.3643 137.4724,47.2183 137.9204,44.7013 C138.3684,42.1863 139.2244,39.4993 138.1694,37.1723 C137.3614,35.3903 134.2804,17.1263 137.5614,16.2093 C140.9114,15.2723 149.4504,9.2403 150.8484,7.1423 C153.0194,3.8863 157.6094,3.3693 161.4864,3.8993 C165.3644,4.4293 208.9694,14.2563 198.1794,22.4203" id="Fill-45" fill="#58585A"></path>
                    <path d="M156.6975,130.320011 L156.6975,130.320011 C167.4405,130.308 176.1015,121.518 175.9535,110.776 L175.6995,92.391 C175.6995,92.391 191.1425,90.844 192.1665,75.544 C193.1885,60.243 192.4505,24.94 192.4505,24.94 C156.0845,18.553 145.7725,14.491 138.6145,28.748 L136.2505,30.372 L137.4005,111.316 C137.5515,121.863 146.1495,130.331 156.6975,130.320011" id="Fill-47" fill="#FFC09D"></path>
                    <path d="M187.0989,51.651 C184.4429,51.245 184.6199,47.787 187.3279,47.165 C187.4479,47.137 187.5789,47.132 187.6959,47.15 C190.3519,47.557 190.1729,51.016 187.4649,51.636 C187.3469,51.664 187.2149,51.669 187.0989,51.651" id="Fill-49" fill="#1A171B"></path>
                    <path d="M188.3889,51.8688 C187.0599,51.6068 187.0699,49.8898 188.4019,49.6418 C188.4599,49.6308 188.5259,49.6318 188.5829,49.6428 C189.9129,49.9058 189.9039,51.6228 188.5709,51.8698 C188.5129,51.8818 188.4479,51.8808 188.3889,51.8688" id="Fill-51" fill="#FFFFFF"></path>
                    <path d="M166.5979,51.651 C163.9429,51.245 164.1189,47.787 166.8279,47.165 C166.9479,47.137 167.0779,47.132 167.1959,47.15 C169.8509,47.557 169.6729,51.016 166.9649,51.636 C166.8459,51.664 166.7149,51.669 166.5979,51.651" id="Fill-53" fill="#1A171B"></path>
                    <path d="M167.8889,51.8688 C166.5589,51.6068 166.5689,49.8898 167.9009,49.6418 C167.9589,49.6308 168.0249,49.6318 168.0829,49.6428 C169.4119,49.9058 169.4029,51.6228 168.0709,51.8698 C168.0119,51.8818 167.9469,51.8808 167.8889,51.8688" id="Fill-55" fill="#FFFFFF"></path>
                    <path d="M170.7376,72.8756 C173.4386,74.1256 176.6626,75.6846 180.9156,76.4436 C180.9156,76.4436 178.2386,80.2446 173.9126,78.3886 C169.4216,76.4616 170.7376,72.8756 170.7376,72.8756" id="Fill-57" fill="#FFFFFF"></path>
                    <path d="M175.7366,92.1715 C175.7366,92.1715 166.0166,92.4325 156.0846,85.4115 C156.0846,85.4115 160.2026,96.6885 175.5556,96.1415 L175.7366,92.1715 Z" id="Fill-59" fill="#FF9B6C"></path>
                    <path d="M141.5393,36.15 C141.5393,36.15 142.3863,51.801 136.1313,51.364 C129.8753,50.927 133.3073,26.594 133.3073,26.594 C133.3073,26.594 137.3573,18.649 140.5933,16.728 C143.8293,14.807 149.3853,33.6 141.5393,36.15" id="Fill-61" fill="#58585A"></path>
                    <path d="M137.2727,46.3336 C137.0187,46.2056 126.9217,42.6476 126.6867,53.1346 C126.4507,63.6206 137.0267,61.6936 137.0517,61.3946 C137.0767,61.0946 137.2727,46.3336 137.2727,46.3336" id="Fill-63" fill="#FFC09D"></path>
                    <path d="M133.9378,57.3493 C133.8928,57.3153 133.7518,57.4733 133.4408,57.6083 C133.1358,57.7383 132.6168,57.8223 132.0748,57.6053 C130.9758,57.1733 130.0828,55.3943 130.0748,53.5023 C130.0688,52.5473 130.2898,51.6433 130.6448,50.8993 C130.9818,50.1383 131.4898,49.6143 132.0498,49.5283 C132.6078,49.4123 132.9958,49.7543 133.1168,50.0523 C133.2508,50.3493 133.1788,50.5573 133.2348,50.5763 C133.2628,50.6033 133.4628,50.4063 133.3888,49.9703 C133.3498,49.7613 133.2328,49.5113 132.9918,49.3043 C132.7438,49.0933 132.3758,48.9813 131.9868,49.0143 C131.1768,49.0523 130.4318,49.7803 130.0418,50.5973 C129.6078,51.4173 129.3368,52.4333 129.3428,53.5053 C129.3628,55.6203 130.3998,57.6213 131.9058,58.0943 C132.6388,58.3023 133.2588,58.0943 133.5838,57.8543 C133.9138,57.6023 133.9738,57.3693 133.9378,57.3493" id="Fill-65" fill="#FF9B6C"></path>
                    <polygon id="Fill-67" fill="#58585A" points="243.2551 161.9293 210.0601 244.0183 150.2061 244.0183 150.2061 247.7233 328.4821 247.7233 364.9471 161.9293"></polygon>
                    <path d="M299.5179,209.9342 C298.5349,213.3132 295.2099,215.3172 292.0919,214.4092 C288.9749,213.5012 287.2449,210.0262 288.2289,206.6472 C289.2119,203.2682 292.5379,201.2652 295.6549,202.1722 C298.7719,203.0802 300.5019,206.5552 299.5179,209.9342" id="Fill-69" fill="#ECECEC"></path>
                    <g id="Group-73" transform="translate(0.000000, 247.000000)">
                        <mask id="mask-6" fill="white">
                            <use xlink:href="#path-5"></use>
                        </mask>
                        <g id="Clip-72"></g>
                        <path d="M427.2327,0.7233 C427.2327,0.8763 331.5857,0.9993 213.6267,0.9993 C95.6267,0.9993 0.0007,0.8763 0.0007,0.7233 C0.0007,0.5713 95.6267,0.4483 213.6267,0.4483 C331.5857,0.4483 427.2327,0.5713 427.2327,0.7233" id="Fill-71" fill="#1A2E35" mask="url(#mask-6)"></path>
                    </g>
                    <path d="M297.6038,123.9704 L309.4178,112.6494 L309.4178,114.2464 C309.4178,115.5884 310.5068,116.6774 311.8488,116.6774 L350.0018,116.6774 L350.0018,131.2624 L311.8488,131.2624 C310.5068,131.2624 309.4178,132.3504 309.4178,133.6934 L309.4178,135.2894 L297.6038,123.9704 Z M292.4218,122.2144 C292.3968,122.2394 292.3738,122.2634 292.3488,122.2874 C291.4188,123.2564 291.4538,124.7954 292.4218,125.7254 L310.1668,142.7404 C310.6208,143.1744 311.2218,143.4164 311.8498,143.4164 C313.1918,143.4164 314.2808,142.3284 314.2808,140.9864 L314.2808,136.1234 L352.4328,136.1234 C353.7748,136.1234 354.8648,135.0354 354.8648,133.6934 L354.8648,114.2454 C354.8648,112.9044 353.7758,111.8154 352.4328,111.8154 L314.2808,111.8154 L314.2808,106.9534 C314.2808,106.3254 314.0378,105.7244 313.6048,105.2714 C312.6758,104.3014 311.1368,104.2694 310.1668,105.1994 L292.4218,122.2144 Z" id="Fill-74" fill="#7037CD"></path>
                    <path d="M271.2278,69.359 L271.2278,67.762 C271.2278,66.42 270.1398,65.331 268.7968,65.331 L230.6438,65.331 L230.6438,50.746 L268.7968,50.746 C270.1398,50.746 271.2278,49.658 271.2278,48.315 L271.2278,46.717 L283.0418,58.039 L271.2278,69.359 Z M270.4788,39.268 C269.5098,38.338 267.9708,38.371 267.0408,39.34 C266.6088,39.793 266.3668,40.395 266.3668,41.022 L266.3668,45.884 L228.2128,45.884 C226.8708,45.884 225.7828,46.972 225.7828,48.314 L225.7828,67.762 C225.7828,69.104 226.8718,70.193 228.2128,70.193 L266.3668,70.193 L266.3668,75.054 C266.3668,76.397 267.4548,77.486 268.7958,77.486 C269.4238,77.486 270.0258,77.243 270.4788,76.809 L288.2238,59.794 C289.1938,58.865 289.2268,57.326 288.2978,56.356 C288.2728,56.332 288.2498,56.307 288.2238,56.283 L270.4788,39.268 Z" id="Fill-76" fill="#7037CD"></path>
                    <polygon id="Fill-78" fill="#F2F2F2" points="310.3763 50.1276 300.9393 40.6906 297.4843 27.7986 300.9393 14.9066 310.3763 5.4706 323.2693 2.0156 336.1603 5.4706 345.5973 14.9066 349.0523 27.7986 345.5973 40.6906 336.1603 50.1276 323.2693 53.5826"></polygon>
                    <g id="Group-82" transform="translate(295.000000, 0.000000)">
                        <mask id="mask-8" fill="white">
                            <use xlink:href="#path-7"></use>
                        </mask>
                        <g id="Clip-81"></g>
                        <path d="M28.2679,0.1539 L14.4459,3.8579 L4.3279,13.9759 L0.6229,27.7989 L4.3279,41.6219 L14.4459,51.7399 L28.2679,55.4439 L42.0909,51.7399 L52.2089,41.6219 L55.9139,27.7989 L52.2089,13.9759 L42.0909,3.8579 L28.2679,0.1539 Z M28.2679,3.8769 L40.2299,7.0819 L48.9859,15.8379 L52.1909,27.7989 L48.9859,39.7599 L40.2299,48.5159 L28.2679,51.7209 L16.3069,48.5159 L7.5509,39.7599 L4.3459,27.7989 L7.5509,15.8379 L16.3069,7.0819 L28.2679,3.8769 Z" id="Fill-80" fill="#EBB900" mask="url(#mask-8)"></path>
                    </g>
                    <path d="M336.5218,28.6334 L335.1678,27.7014 L333.6748,30.2064 C333.6748,30.2064 336.4728,30.2254 336.7438,29.8324 C337.0128,29.4404 336.9138,28.9034 336.5218,28.6334" id="Fill-83" fill="#DCD8D5"></path>
                    <path d="M334.0081,20.2135 L315.1851,16.7635 L315.1851,36.4765 L313.1771,41.6225 C317.1971,41.8695 320.8191,43.5925 323.5061,46.2565 C323.9301,45.1685 326.4201,38.7875 326.4201,38.7875 L331.7561,38.8065 C333.6401,38.8065 335.1681,37.2785 335.1681,35.3955 L335.1681,27.7015 L334.5211,26.9435 L335.1681,25.9775 L335.1681,25.3735 C335.1681,23.5265 334.7521,21.7765 334.0081,20.2135" id="Fill-85" fill="#DCD8D5"></path>
                    <path d="M323.1321,11.8727 C316.0211,11.8727 310.1761,17.3987 309.6661,24.3827 C308.1131,25.6337 307.1181,27.5497 307.1181,29.6987 C307.1181,33.4677 310.1731,36.5217 313.9421,36.5217 C317.7101,36.5217 320.7651,33.4677 320.7651,29.6987 C320.7651,29.3687 320.7401,29.0447 320.6951,28.7267 C320.9261,28.7677 321.1631,28.7887 321.4051,28.7887 C323.7131,28.7887 325.5841,26.9177 325.5841,24.6087 C325.5841,24.5627 325.5821,24.5177 325.5811,24.4727 C325.6361,24.4757 325.6911,24.4797 325.7461,24.4797 C327.1911,24.4797 328.3611,23.3107 328.3611,21.8657 L335.4271,19.7987 C333.3011,15.1277 328.5891,11.8727 323.1321,11.8727" id="Fill-89" fill="#B1A8A4"></path>
                    <path d="M332.9309,16.0963 L332.0209,12.9843 C331.8869,12.5273 331.4079,12.2653 330.9509,12.3993 C330.4929,12.5333 330.2309,13.0113 330.3649,13.4683 L330.5699,14.1683 L328.3099,14.8293 L328.1059,14.1293 C327.9719,13.6723 327.4929,13.4103 327.0349,13.5443 C326.5779,13.6783 326.3159,14.1573 326.4499,14.6143 L326.6549,15.3143 L324.3949,15.9753 L324.1899,15.2753 C324.0559,14.8183 323.5769,14.5563 323.1199,14.6903 C322.6629,14.8243 322.4009,15.3033 322.5349,15.7603 L322.7399,16.4593 L320.4799,17.1203 L320.2749,16.4213 C320.1409,15.9643 319.6619,15.7013 319.2049,15.8353 C318.7469,15.9693 318.4859,16.4493 318.6189,16.9063 L318.8239,17.6053 L316.5639,18.2663 L316.3599,17.5673 C316.2259,17.1103 315.7459,16.8473 315.2889,16.9813 C314.8319,17.1153 314.5699,17.5943 314.7029,18.0513 L315.6149,21.1623015 C315.6149,21.1633 317.2699,20.6793 317.2699,20.6793 C317.2699,20.6783 332.9309,16.0963 332.9309,16.0963" id="Fill-91" fill="#DCD8D5"></path>
                    <path d="M363.2239,52.6776 C377.03094,52.6776 388.2239,63.8709765 388.2239,77.6776 C388.2239,91.4851548 377.03094,102.6776 363.2239,102.6776 C349.41686,102.6776 338.2239,91.4851548 338.2239,77.6776 C338.2239,63.8709765 349.41686,52.6776 363.2239,52.6776" id="Fill-93" fill="#EBB900"></path>
                    <path d="M380.4817,66.6598 C376.8437,60.9738 370.4737,57.2048 363.2237,57.2048 C351.9177,57.2048 342.7517,66.3708 342.7517,77.6778 C342.7517,88.9848 351.9177,98.1498 363.2237,98.1498 C371.1057,98.1498 377.9467,93.6958 381.3677,87.1678 L380.4817,66.6598 Z" id="Fill-95" fill="#F2F2F2"></path>
                    <path d="M360.4173,90.4059 L357.2943,90.4059 L362.3303,61.0339 L352.6873,64.7649 C352.2303,64.9409 352.0043,65.4539 352.1813,65.9099 C352.3573,66.3649 352.8693,66.5929 353.3253,66.4159 L355.5503,65.5539 L351.3703,90.4059 L347.9463,90.4059 C347.4583,90.4059 347.0623,90.8019 347.0623,91.2909 C347.0623,91.7789 347.4583,92.1759 347.9463,92.1759 L360.4173,92.1759 C360.9053,92.1759 361.3023,91.7789 361.3023,91.2909 C361.3023,90.8019 360.9053,90.4059 360.4173,90.4059" id="Fill-97" fill="#B1A8A4"></path>
                    <path d="M371.9554,77.3385 C371.4674,77.3385 371.0704,76.9425 371.0704,76.4525 L371.0704,75.8915 C371.0704,75.4025 371.4674,75.0065 371.9554,75.0065 C372.4444,75.0065 372.8414,75.4025 372.8414,75.8915 L372.8414,76.4525 C372.8414,76.9425 372.4444,77.3385 371.9554,77.3385" id="Fill-99" fill="#DCD8D5"></path>
                    <path d="M367.4134,73.4479 C366.7284,73.4479 366.1744,74.0029 366.1744,74.6869 L366.1744,78.8159 L367.4134,78.8159 C368.0974,78.8159 368.6514,78.2609 368.6514,77.5769 L368.6514,74.6869 C368.6514,74.0029 368.0974,73.4479 367.4134,73.4479" id="Fill-101" fill="#DCD8D5"></path>
                    <path d="M363.8138,77.8102 C363.3258,77.8102 362.9288,77.4142 362.9288,76.9252 L362.9288,74.6872 C362.9288,74.1992 363.3258,73.8022 363.8138,73.8022 C364.3028,73.8022 364.6988,74.1992 364.6988,74.6872 L364.6988,76.9252 C364.6988,77.4142 364.3028,77.8102 363.8138,77.8102" id="Fill-103" fill="#DCD8D5"></path>
                    <path d="M383.6966,77.6774 C383.6966,73.6214 382.5166,69.8404 380.4816,66.6594 L373.2296,68.2464 C372.6586,68.3714 372.1916,68.9514 372.1916,69.5354 L372.1916,71.2244 C372.1916,71.8084 372.6586,72.1834 373.2296,72.0594 L373.2296,73.5474 C373.2296,74.0364 373.6256,74.4334 374.1146,74.4334 C374.6026,74.4334 374.9996,74.0364 374.9996,73.5474 L374.9996,71.6714 L379.0946,70.7754 L379.0946,74.4644 L375.2086,75.1224 C374.7256,75.2044 374.4016,75.6614 374.4826,76.1434 C374.5556,76.5744 374.9306,76.8804 375.3546,76.8804 C375.4036,76.8804 375.4536,76.8764 375.5036,76.8674 L376.8816,76.6344 L376.8816,78.2504 L371.9276,79.0894 C370.8406,79.2744 369.9496,80.3264 369.9496,81.4304 L369.9496,83.9024 L363.5186,83.9024 L363.5186,86.3684 C363.5186,88.1454 364.9586,89.5844 366.7346,89.5844 C368.2346,89.5844 369.4956,88.5574 369.8496,87.1674 L372.5306,87.1674 L372.5306,89.4054 C372.5306,89.8944 372.9266,90.2894 373.4156,90.2894 C373.9046,90.2894 374.3006,89.8944 374.3006,89.4054 L374.3006,87.1674 L381.3676,87.1674 C382.8546,84.3304 383.6966,81.1034 383.6966,77.6774" id="Fill-105" fill="#DCD8D5"></path>
                    <path d="M283.0423,115.7624 C283.0423,131.4104 270.3563,144.0964 254.7083,144.0964 C239.0603,144.0964 226.3743,131.4104 226.3743,115.7624 C226.3743,100.1144 239.0603,87.4284 254.7083,87.4284 C270.3563,87.4284 283.0423,100.1144 283.0423,115.7624 Z" id="Fill-107" fill="#DCD8D5"></path>
                    <path d="M279.9283,115.7626 C279.9283,129.6906 268.6373,140.9816 254.7083,140.9816 C240.7793,140.9816 229.4873,129.6906 229.4873,115.7626 C229.4873,101.8336 240.7793,90.5416 254.7083,90.5416 C268.6373,90.5416 279.9283,101.8336 279.9283,115.7626 Z" id="Fill-109" fill="#F2F2F2"></path>
                    <path d="M234.3557,121.8395 L235.4957,121.5305 L235.6267,121.4975 C235.7207,121.4725 235.7857,121.4295 235.8207,121.3675 C235.8557,121.3075 235.8607,121.2295 235.8347,121.1355 C235.7967,120.9955 235.7307,120.8745 235.6367,120.7745 C235.5427,120.6735 235.4287,120.6075 235.2937,120.5755 C235.1597,120.5455 235.0197,120.5495 234.8747,120.5885 C234.7087,120.6335 234.5707,120.7125 234.4597,120.8245 C234.3477,120.9375 234.2847,121.0685 234.2687,121.2165 C234.2527,121.3645 234.2817,121.5725 234.3557,121.8395 L234.3557,121.8395 Z M234.1517,121.8945 C234.0847,121.6465 234.0067,121.4715 233.9187,121.3685 C233.8317,121.2665 233.7287,121.1965 233.6107,121.1615 C233.4927,121.1255 233.3537,121.1295 233.1977,121.1725 C233.0407,121.2145 232.9187,121.2795 232.8357,121.3695 C232.7517,121.4585 232.7007,121.5685 232.6787,121.6975 C232.6577,121.8265 232.6827,122.0195 232.7527,122.2735 L234.1517,121.8945 Z M233.9637,120.9225 C233.9517,120.5645 233.9827,120.3015 234.0577,120.1355 C234.1637,119.8975 234.3427,119.7425 234.5957,119.6745 C234.8637,119.6025 235.1137,119.6505 235.3457,119.8175 C235.6277,120.0245 235.8377,120.3785 235.9737,120.8815 L236.4617,122.6855 L236.3657,122.7115 C236.3217,122.5475 236.2757,122.4405 236.2297,122.3905 C236.1827,122.3405 236.1317,122.3095 236.0777,122.2995 C236.0217,122.2885 235.8977,122.3105 235.7067,122.3615 L233.4017,122.9855 C233.2097,123.0375 233.0917,123.0825 233.0477,123.1195 C233.0047,123.1555 232.9767,123.2085 232.9627,123.2765 C232.9497,123.3435 232.9637,123.4585 233.0077,123.6205 L232.9117,123.6475 L232.4507,121.9445 C232.3397,121.5375 232.2987,121.2395 232.3257,121.0515 C232.3517,120.8615 232.4237,120.6985 232.5417,120.5625 C232.6597,120.4255 232.7987,120.3355 232.9607,120.2915 C233.1327,120.2445 233.3017,120.2655 233.4687,120.3535 C233.6357,120.4415 233.8007,120.6305 233.9637,120.9225 L233.9637,120.9225 Z" id="Fill-111" fill="#B1A8A4"></path>
                    <path d="M231.8147,117.4772 C231.8387,117.8122 232.0297,118.0552 232.3847,118.2052 C232.6767,118.3262 233.0867,118.3682 233.6137,118.3292 C234.2397,118.2822 234.6937,118.1382 234.9767,117.8952 C235.1747,117.7262 235.2637,117.5042 235.2437,117.2282 C235.2297,117.0422 235.1727,116.8902 235.0737,116.7732 C234.9467,116.6232 234.7527,116.5132 234.4927,116.4432 C234.2327,116.3732 233.8987,116.3542 233.4917,116.3842 C233.0057,116.4202 232.6467,116.4922 232.4127,116.6002 C232.1777,116.7082 232.0167,116.8352 231.9277,116.9832 C231.8387,117.1302 231.8007,117.2942 231.8147,117.4772 M231.6437,117.5222 C231.5797,116.9392 231.7137,116.4522 232.0497,116.0602 C232.3847,115.6672 232.8257,115.4522 233.3707,115.4112 C233.8357,115.3762 234.2547,115.4822 234.6287,115.7282 C235.1247,116.0542 235.3967,116.5462 235.4457,117.2052 C235.4947,117.8662 235.3087,118.3922 234.8877,118.7862 C234.5557,119.0972 234.1467,119.2712 233.6617,119.3072 C233.1167,119.3472 232.6487,119.1962 232.2577,118.8522 C231.8677,118.5082 231.6627,118.0652 231.6437,117.5222" id="Fill-113" fill="#B1A8A4"></path>
                    <path d="M234.3548,111.608 L235.6218,111.895 L235.2418,115.14 L235.1418,115.129 L235.1568,115.006 C235.1678,114.901 235.1598,114.813 235.1288,114.744 C235.1098,114.695 235.0708,114.654 235.0128,114.621 C234.9718,114.596 234.8598,114.573 234.6768,114.551 L232.2728,114.27 C232.0858,114.249 231.9678,114.245 231.9188,114.258 C231.8708,114.273 231.8248,114.308 231.7828,114.365 C231.7408,114.421 231.7128,114.5 231.7018,114.602 L231.6878,114.723 L231.5878,114.712 L231.8158,112.763 L231.9158,112.775 L231.8968,112.934 C231.8848,113.04 231.8938,113.128 231.9238,113.197 C231.9438,113.247 231.9818,113.288 232.0408,113.322 C232.0808,113.347 232.1928,113.371 232.3758,113.391 L234.7048,113.665 C234.8908,113.686 235.0108,113.69 235.0648,113.674 C235.1188,113.659 235.1628,113.621 235.1948,113.561 C235.2158,113.518 235.2368,113.41 235.2568,113.238 L235.2918,112.933 C235.3158,112.739 235.2998,112.574 235.2478,112.436 C235.1938,112.298 235.0988,112.174 234.9628,112.063 C234.8268,111.951 234.6198,111.837 234.3418,111.718 L234.3548,111.608 Z" id="Fill-115" fill="#B1A8A4"></path>
                    <path d="M236.0979,109.6979 L236.1959,109.7219 L235.7259,111.5879 L235.6279,111.5629 L235.6589,111.4449 C235.6839,111.3419 235.6869,111.2539 235.6659,111.1799 C235.6529,111.1289 235.6189,111.0839 235.5659,111.0439 C235.5289,111.0129 235.4209,110.9759 235.2419,110.9309 L232.8949,110.3409 C232.7119,110.2949 232.5959,110.2759 232.5449,110.2839 C232.4949,110.2919 232.4459,110.3199 232.3969,110.3709 C232.3469,110.4209 232.3109,110.4959 232.2849,110.5949 L232.2549,110.7149 L232.1589,110.6899 L232.6269,108.8239 L232.7249,108.8479 L232.6949,108.9679 C232.6689,109.0709 232.6659,109.1589 232.6879,109.2309 C232.7009,109.2829 232.7339,109.3289 232.7859,109.3709 C232.8239,109.3999 232.9319,109.4379 233.1109,109.4829 L235.4569,110.0739 C235.6399,110.1199 235.7569,110.1379 235.8069,110.1299 C235.8579,110.1209 235.9079,110.0919 235.9569,110.0409 C236.0059,109.9909 236.0429,109.9159 236.0689,109.8159 L236.0979,109.6979 Z" id="Fill-117" fill="#B1A8A4"></path>
                    <path d="M234.2708,104.6305 L234.3638,104.6695 C234.3318,104.8015 234.3508,104.9395 234.4218,105.0825 C234.4758,105.1885 234.6278,105.3745 234.8778,105.6435 L236.9778,107.9015 L236.9428,107.9835 L233.7578,108.0125 C233.3748,108.0155 233.1438,108.0285 233.0668,108.0525 C232.9908,108.0755 232.9168,108.1515 232.8458,108.2765 L232.7528,108.2365 L233.4378,106.6115 L233.5308,106.6515 L233.5068,106.7055 C233.4458,106.8525 233.4208,106.9595 233.4358,107.0285 C233.4448,107.0775 233.4728,107.1115 233.5218,107.1325 C233.5518,107.1455 233.5898,107.1535 233.6358,107.1565 C233.6828,107.1605 233.8118,107.1615 234.0218,107.1605 L236.0138,107.1485 L234.7928,105.8455 C234.6448,105.6895 234.5438,105.5885 234.4908,105.5445 C234.4358,105.4995 234.3868,105.4685 234.3438,105.4505 C234.2938,105.4295 234.2448,105.4245 234.1948,105.4355 C234.1448,105.4445 234.0988,105.4725 234.0578,105.5155 C233.9998,105.5745 233.9448,105.6645 233.8948,105.7825 L233.8028,105.7435 L234.2708,104.6305 Z" id="Fill-119" fill="#B1A8A4"></path>
                    <path d="M237.3997,104.2194 L236.0347,104.0184 L236.8147,105.1644 L237.3997,104.2194 Z M237.6197,104.2464 L236.9347,105.3514 L237.1587,105.6714 C237.2327,105.7784 237.3027,105.8514 237.3697,105.8924 C237.4577,105.9464 237.5437,105.9504 237.6287,105.9064 C237.6787,105.8794 237.7607,105.7884 237.8747,105.6334 L237.9597,105.6864 L237.3157,106.7264 L237.2297,106.6734 C237.2827,106.5514 237.2937,106.4304 237.2617,106.3104 C237.2307,106.1914 237.1287,106.0044 236.9567,105.7504 L235.1537,103.0864 L235.1797,103.0424 L238.4437,103.5034 C238.7537,103.5464 238.9617,103.5524 239.0667,103.5224 C239.1467,103.4994 239.2207,103.4434 239.2877,103.3524 L239.3727,103.4054 L238.4357,104.9184 L238.3497,104.8654 L238.3887,104.8034 C238.4637,104.6814 238.5007,104.5854 238.4967,104.5154 C238.4927,104.4664 238.4677,104.4274 238.4217,104.3994 C238.3937,104.3824 238.3627,104.3684 238.3287,104.3604 C238.3117,104.3554 238.2407,104.3424 238.1127,104.3224 L237.6197,104.2464 Z" id="Fill-121" fill="#B1A8A4"></path>
                    <path d="M237.7493,100.0368 L238.9343,101.1298 L239.0393,101.0158 C239.2093,100.8318 239.3193,100.6778 239.3703,100.5548 C239.4213,100.4318 239.4273,100.3038 239.3873,100.1688 C239.3473,100.0348 239.2563,99.9018 239.1133,99.7708 C238.9073,99.5808 238.7113,99.4888 238.5233,99.4938 C238.3363,99.4998 238.1443,99.6098 237.9463,99.8238 L237.7493,100.0368 Z M239.0753,101.2608 L239.8333,101.9598 C239.9793,102.0948 240.0803,102.1708 240.1343,102.1868 C240.1883,102.2048 240.2483,102.2008 240.3123,102.1768 C240.3773,102.1518 240.4663,102.0778 240.5803,101.9548 L240.6533,102.0228 L239.3773,103.4068 L239.3033,103.3388 C239.4183,103.2138 239.4843,103.1178 239.5033,103.0528 C239.5203,102.9858 239.5193,102.9268 239.4983,102.8748 C239.4783,102.8218 239.3953,102.7288 239.2483,102.5938 L237.4933,100.9738 C237.3473,100.8398 237.2473,100.7638 237.1923,100.7468 C237.1383,100.7288 237.0783,100.7328 237.0143,100.7578 C236.9503,100.7818 236.8603,100.8558 236.7473,100.9788 L236.6733,100.9118 L237.8323,99.6548 C238.1343,99.3288 238.3773,99.1098 238.5623,99.0008 C238.7473,98.8908 238.9443,98.8438 239.1543,98.8598 C239.3643,98.8768 239.5513,98.9608 239.7153,99.1108 C239.9143,99.2958 240.0133,99.5188 240.0113,99.7828 C240.0093,99.9508 239.9523,100.1368 239.8413,100.3388 L241.3553,100.5328 C241.5533,100.5578 241.6833,100.5648 241.7453,100.5568 C241.8363,100.5398 241.9173,100.4978 241.9873,100.4298 L242.0613,100.4978 L241.2753,101.3488 L239.2393,101.0828 L239.0753,101.2608 Z" id="Fill-123" fill="#B1A8A4"></path>
                    <path d="M248.7454,101.3737 C247.2774,102.8427 245.4254,105.8697 245.4224,108.6627 C245.4224,108.9467 245.4334,109.2377 245.3424,109.5077 C245.2644,109.7377 245.1134,109.9367 244.9664,110.1307 C244.2144,111.1217 243.2584,112.1127 242.5064,113.1037 C241.9634,113.8187 241.4474,114.9217 242.1324,115.5037 C242.5214,115.8347 243.1754,115.8177 243.4444,116.2537 C243.6384,116.5677 243.5364,116.9697 243.5114,117.3377 C243.4224,118.5827 244.2724,119.7887 244.0384,121.0147 C243.9334,121.5567 243.6214,122.0967 243.7744,122.6267 C243.9594,123.2657 244.7044,123.5267 245.3474,123.6947 C246.3224,123.9487 247.2984,124.2037 248.2734,124.4577 C248.4394,124.5017 248.6164,124.5507 248.7304,124.6797 C248.8384,124.8007 248.8694,124.9697 248.8964,125.1297 C249.2974,127.4557 249.6794,129.9427 248.7254,132.1027 C248.4614,132.7037 248.0964,133.2667 247.9334,133.9017 C247.7684,134.5377 247.8564,135.3007 248.3664,135.7147 C248.9374,136.1777 249.7704,136.0327 250.4844,135.8567 C254.7844,134.7987 259.1104,133.4617 263.5334,133.6697 C263.6544,133.6757 263.7834,133.6807 263.8854,133.6147 C264.0424,133.5137 264.0624,133.2947 264.0644,133.1077 C264.0954,130.6027 263.8334,128.0707 263.9154,125.5777 C262.6874,125.0007 261.9194,123.6987 261.6474,122.3657 C261.3734,121.0147 261.5314,119.6167 261.6904,118.2467 C261.2374,118.4257 260.6494,118.3377 260.3704,117.9367 C260.0924,117.5367 260.3174,116.8527 260.8034,116.8037 C260.1314,116.8037 259.4604,116.6577 258.8504,116.3787 C259.5234,115.7647 260.1894,115.1157 260.6224,114.3127 C261.0554,113.5117 261.2274,112.5217 260.8784,111.6807 C260.5274,110.8387 259.5644,110.2337 258.6844,110.4727 C257.4314,110.8117 256.8184,112.5727 255.5194,112.5897 C254.9724,112.5977 254.4684,112.2607 254.1204,111.8367 C252.9154,110.3727 253.4194,108.0117 254.8104,106.7247 C254.2914,106.5977 253.7144,106.7307 253.3044,107.0737 C253.5624,106.0327 253.9804,105.0317 254.5404,104.1157 C254.2084,104.2617 253.8764,104.4067 253.5444,104.5537 C253.5194,103.5947 254.2184,102.6647 255.1444,102.4217 C254.0074,101.6507 253.2224,100.1457 251.8494,100.0977 C251.8494,100.0977 250.2144,99.9057 248.7454,101.3737" id="Fill-125" fill="#DCD8D5"></path>
                    <path d="M269.1438,105.2086 C268.9638,104.2676 268.7048,103.3106 268.1188,102.5516 C267.5848,101.8606 266.8218,101.3896 266.0628,100.9566 C262.3838,98.8586 258.4178,97.3196 254.4688,95.7896 C254.0598,95.6306 253.6328,95.4696 253.1958,95.5036 C252.8348,95.5316 252.4678,95.6456 252.1808,95.8646 C248.9238,98.3666 248.1058,99.9836 248.1498,99.9686 C248.2858,100.2826 248.4388,100.4896 248.6088,100.6206 C249.4318,101.2546 250.6258,100.0536 251.8488,100.0976 C253.2218,100.1466 254.0068,101.6506 255.1448,102.4216 C254.2178,102.6646 253.5198,103.5946 253.5438,104.5536 C253.8758,104.4066 254.2078,104.2616 254.5398,104.1156 C253.9808,105.0316 253.5628,106.0326 253.3038,107.0736 C253.7138,106.7306 254.2908,106.5976 254.8108,106.7246 C253.4188,108.0116 252.9148,110.3726 254.1208,111.8366 C254.4678,112.2606 254.9718,112.5976 255.5198,112.5896 C256.8188,112.5726 257.4308,110.8116 258.6848,110.4726 C259.5648,110.2336 260.5278,110.8386 260.8778,111.6806 C261.2278,112.5216 261.0548,113.5116 260.6228,114.3126 C260.1898,115.1156 259.5238,115.7646 258.8498,116.3786 C259.4598,116.6576 260.1308,116.8036 260.8028,116.8036 C260.3178,116.8536 260.0918,117.5366 260.3708,117.9376 C260.6498,118.3376 261.2378,118.4256 261.6908,118.2466 C261.5318,119.6166 261.3728,121.0146 261.6478,122.3656 C261.9188,123.6986 262.6878,125.0006 263.9148,125.5776 C263.9338,125.5856 263.9508,125.5956 263.9688,125.6046 C264.6148,122.4976 265.2728,119.3546 266.6648,116.5026 C267.3978,114.9986 268.3318,113.5836 268.8728,112.0006 C269.6138,109.8326 269.5728,107.4596 269.1438,105.2086" id="Fill-127" fill="#B1A8A4"></path>
                </g>
            </g>
        </g>
    </g>
</svg>