<?xml version="1.0" encoding="UTF-8"?>
<svg width="137px" height="85px" viewBox="0 0 137 85" version="1.1" xmlns="http://www.w3.org/2000/svg" xmlns:xlink="http://www.w3.org/1999/xlink">
    <title>Group 24</title>
    <defs>
        <polygon id="path-1" points="0 0.359621951 17.5715053 0.359621951 17.5715053 36.8825476 0 36.8825476"></polygon>
        <polygon id="path-3" points="0 85 137 85 137 1 0 1"></polygon>
    </defs>
    <g id="Page-1" stroke="none" stroke-width="1" fill="none" fill-rule="evenodd">
        <g id="web" transform="translate(-652.000000, -834.000000)">
            <g id="Group-12" transform="translate(603.000000, 793.000000)">
                <g id="Group-24" transform="translate(49.000000, 41.000000)">
                    <g id="Group-11">
                        <mask id="mask-2" fill="white">
                            <use xlink:href="#path-1"></use>
                        </mask>
                        <g id="Clip-10"></g>
                        <path d="M4.26808421,12.6737183 L0.690821053,12.6737183 L1.44397895,9.08742561 L5.64792632,8.48955976 L8.59755789,0.359486585 L13.8691895,0.359486585 L12.0483474,8.6686939 L17.5715053,8.6686939 L16.6923474,12.6737183 L11.1076105,12.6737183 L7.59382105,28.4542183 C7.40529474,29.1716573 7.34229474,29.7699744 7.34229474,30.1882549 C7.34229474,31.20395 7.78187368,31.5026573 8.78608421,31.5026573 C9.85282105,31.5026573 10.7940316,31.144389 13.1790316,30.0686817 L13.1790316,34.7911451 C11.2956632,36.0455354 7.84487368,36.8825476 5.02076842,36.8825476 C1.25545263,36.8825476 -0.000284210526,35.448572 -0.000284210526,32.9370841 C-0.000284210526,32.0414134 0.188715789,30.9652549 0.439294737,29.8295354 L4.26808421,12.6737183 Z" id="Fill-9" fill="#525AC5" mask="url(#mask-2)"></path>
                    </g>
                    <path d="M36.7340047,20.5671151 C36.7340047,16.6243722 35.1609777,13.2982206 31.3458617,13.2982206 C25.352638,13.2982206 22.2650813,19.7659185 22.2650813,25.6793354 C22.2650813,29.499318 23.77824,32.8873148 27.5316597,32.8873148 C33.5257974,32.8873148 36.7340047,26.4186868 36.7340047,20.5671151 M44,19.8272987 C44,29.006417 38.0666446,38 26.5029312,38 C18.4508793,38 15,32.6413293 15,26.2959266 C15,17.1791184 21.1755705,8 32.6177194,8 C40.6693142,8 44,13.483291 44,19.8272987" id="Fill-12" fill="#525AC5"></path>
                    <path d="M60.9801256,36 L64.9005116,18.0805695 C65.0216574,17.4318178 65.0822303,16.9009805 65.0822303,16.3710331 C65.0822303,14.3077534 64.0570457,13.2469687 62.0053102,13.2469687 C59.4712688,13.2469687 55.1879009,15.1914441 53.4372081,18.6109619 L49.6366015,36 L43,36 L48.912915,8.88502551 L54.1012326,8.88502551 L53.497781,12.8927805 L53.7391616,12.8927805 C56.0923952,9.59162204 60.3156457,8 64.237398,8 C67.978798,8 71.0557181,9.29750346 71.840433,12.7753111 C74.1923002,9.59162204 78.3558887,8 82.2175236,8 C86.5610089,8 90,9.70953645 90,14.602317 C90,15.4864526 89.8797651,16.4885026 89.637929,17.5497322 L85.5963972,36 L78.9593403,36 L82.8810927,18.0805695 C83.0022384,17.4318178 83.061445,16.9009805 83.061445,16.3710331 C83.061445,14.3077534 82.035805,13.2469687 79.9845249,13.2469687 C77.450939,13.2469687 73.1671156,15.1914441 71.4774511,18.6109619 L71.4774511,18.3751331 L67.6158162,36 L60.9801256,36 Z" id="Fill-14" fill="#525AC5"></path>
                    <path d="M112.307484,29.0065564 L114.756988,17.1789761 C112.965284,14.1602368 110.575744,13.2367593 108.306583,13.2367593 C102.154193,13.2367593 98.5698828,19.5197545 98.5698828,25.556768 C98.5698828,29.3757614 100.123535,32.887394 103.767358,32.887394 C106.334986,32.887394 110.037872,31.408714 112.307484,29.0065564 L112.307484,29.0065564 Z M123,8.92440752 L117.146078,37.26066 L111.889089,37.26066 L112.188909,33.3798224 L111.949053,33.3798224 C109.201533,35.9052033 106.155095,38 101.855726,38 C95.5838593,38 92,33.0106174 92,26.2342638 C92,17.4258878 97.8534716,8 107.888188,8 C111.651037,8 114.995491,9.41683587 116.369702,11.7576143 L116.608206,11.7576143 L117.862489,8.92440752 L123,8.92440752 Z" id="Fill-16" fill="#525AC5"></path>
                    <mask id="mask-4" fill="white">
                        <use xlink:href="#path-3"></use>
                    </mask>
                    <g id="Clip-19"></g>
                    <polygon id="Fill-18" fill="#525AC5" mask="url(#mask-4)" points="0 51 13 51 13 44 0 44"></polygon>
                    <path d="M21.4081127,76.2630744 L21.4081127,64.7734436 C18.9900222,61.8418622 16.3888744,60.9438678 14.0908439,60.9438678 C9.01043433,60.9438678 6.59234381,65.3127823 6.59234381,70.3384795 C6.59234381,75.1862039 8.82965958,80.0330248 13.5466936,80.0330248 C16.1473849,80.0330248 19.5939742,78.5970468 21.4081127,76.2630744 M0,70.2192287 C0,62.7389532 4.05145428,55.8571902 12.5181949,55.8571902 C16.3281596,55.8571902 19.5337159,57.2339945 21.4081127,59.5078898 L21.4081127,40 L28,40 L28,84.2817851 L22.678101,84.2817851 L22.1946654,80.5118347 L21.9527194,80.5118347 C19.7154037,82.9646062 17.0549107,85 12.7003391,85 C5.08040955,85 0,78.6571239 0,70.2192287" id="Fill-20" fill="#328FC9" mask="url(#mask-4)"></path>
                    <path d="M50.4500908,76.0060914 L50.4500908,70.4001271 L49.3185794,70.4001271 C42.8271115,70.4001271 39.9679885,72.0634096 39.9679885,75.8210239 C39.9679885,78.3468698 41.2190796,79.517259 43.6016821,79.517259 C46.1618559,79.517259 48.9611891,78.1008881 50.4500908,76.0060914 L50.4500908,76.0060914 Z M51.7596231,84.26066 L51.2831026,80.3798224 L51.0452919,80.3798224 C48.9018488,83.1521149 44.8514245,85 41.03971,85 C36.0366943,85 33,81.6734349 33,76.8072756 C33,70.0304571 38.836477,66.0263961 47.8885684,66.0263961 L50.4500908,66.0263961 L50.4500908,65.1033836 C50.4500908,63.5014802 49.9731208,62.331091 48.9611891,61.590821 C47.9483582,60.851946 46.3398767,60.482276 44.1366438,60.482276 C41.0994999,60.482276 38.5986663,61.1607018 36.2758537,62.5152285 L35.0247626,57.4026226 C37.7049656,55.8007192 40.8616892,55 44.6729541,55 C48.6033491,55 51.6998333,55.8625634 53.7250454,57.5263109 C55.6306779,59.0659051 57,61.590821 57,64.9796953 L57,84.26066 L51.7596231,84.26066 Z" id="Fill-21" fill="#328FC9" mask="url(#mask-4)"></path>
                    <path d="M82.1493745,84 L82.1493745,66.0796796 C82.1493745,62.8968805 80.7489896,61.2460788 78.191885,61.2460788 C75.6329413,61.2460788 71.7352186,63.1914441 70.7003314,66.6105169 L70.7003314,84 L64,84 L64,56.8845805 L69.2383406,56.8845805 L69.5426922,60.8923356 L69.7858976,60.8923356 C71.4308671,57.591622 75.3285898,56 79.2874586,56 C83.0633487,56 86.473741,57.2970585 87.9964183,60.8336008 C89.6413878,57.591622 93.478424,56 97.4372928,56 C102.614487,56 107,58.4174679 107,65.5497322 L107,84 L100.299669,84 L100.299669,66.0796796 C100.299669,62.8968805 98.8988239,61.2460788 96.3407997,61.2460788 C93.7836951,61.2460788 89.8855127,63.1914441 88.8492462,66.6105169 L88.8492462,84 L82.1493745,84 Z" id="Fill-22" fill="#328FC9" mask="url(#mask-4)"></path>
                    <path d="M119.126528,65.9038068 L130.468283,65.9038068 C130.527898,65.6568913 130.585721,65.3495257 130.585721,64.8561597 C130.585721,62.2075144 128.627371,60.2977556 125.895812,60.2977556 C122.629057,60.2977556 120.135511,62.4534999 119.126528,65.9038068 M137,65.4727509 C137,67.2588195 136.52442,69.7847046 135.871786,70.7081964 L118.591781,70.7081964 C118.888514,75.6367413 121.500843,79.6408643 126.667677,79.6408643 C129.576738,79.6408643 133.199394,78.3472317 135.514989,76.6220782 L136.584036,81.6738483 C134.505558,83.0288611 130.408667,85 125.657349,85 C116.810485,85 112,78.0394011 112,70.0925352 C112,61.9615289 116.987987,55 126.073314,55 C133.020995,55 137,58.8199826 137,65.4727509" id="Fill-23" fill="#328FC9" mask="url(#mask-4)"></path>
                </g>
            </g>
        </g>
    </g>
</svg>