<?xml version="1.0" encoding="UTF-8"?>
<svg width="20px" height="21px" viewBox="0 0 20 21" version="1.1" xmlns="http://www.w3.org/2000/svg" xmlns:xlink="http://www.w3.org/1999/xlink">
    <title>Group 25</title>
    <defs>
        <polygon id="path-1" points="0.0707160494 0.23382716 18.7077531 0.23382716 18.7077531 6.82266667 0.0707160494 6.82266667"></polygon>
        <polygon id="path-3" points="0 0.155876543 19.7661728 0.155876543 19.7661728 6.74451852 0 6.74451852"></polygon>
    </defs>
    <g id="Page-1" stroke="none" stroke-width="1" fill="none" fill-rule="evenodd">
        <g id="web" transform="translate(-1263.000000, -12.000000)">
            <g id="Group-25" transform="translate(1263.000000, 12.000000)">
                <g id="Group-3" transform="translate(0.493827, 0.013136)">
                    <mask id="mask-2" fill="white">
                        <use xlink:href="#path-1"></use>
                    </mask>
                    <g id="Clip-2"></g>
                    <path d="M9.38923457,0.233777778 C5.08651852,0.233777778 1.42775309,2.98464198 0.0707160494,6.82266667 L18.7077531,6.82266667 C17.350716,2.98464198 13.6919506,0.233777778 9.38923457,0.233777778" id="Fill-1" fill="#FFE62E" mask="url(#mask-2)"></path>
                </g>
                <path d="M9.88306173,20.0131358 C14.1857778,20.0131358 17.8445432,17.2622716 19.2015802,13.4242469 L0.56454321,13.4242469 C1.92158025,17.2622716 5.58034568,20.0131358 9.88306173,20.0131358" id="Fill-4" fill="#ED4C5C"></path>
                <g id="Group-8" transform="translate(0.000000, 6.679802)">
                    <mask id="mask-4" fill="white">
                        <use xlink:href="#path-3"></use>
                    </mask>
                    <g id="Clip-7"></g>
                    <path d="M0.564592593,0.155876543 C0.199901235,1.18674074 -9.87654321e-05,2.29464198 -9.87654321e-05,3.45019753 C-9.87654321e-05,4.60575309 0.199901235,5.71365432 0.564592593,6.74451852 L19.2013827,6.74451852 C19.566321,5.71365432 19.766321,4.60575309 19.766321,3.45019753 C19.766321,2.29464198 19.566321,1.18674074 19.2013827,0.155876543 L0.564592593,0.155876543 Z" id="Fill-6" fill="#2A5F9E" mask="url(#mask-4)"></path>
                </g>
                <polygon id="Fill-9" fill="#FFFFFF" points="10.7258025 8.53093827 11.0687654 8.8768642 11.0028395 8.39661728 11.447284 8.18180247 10.9616049 8.09735802 10.8932099 7.61809877 10.6588889 8.046 10.1717284 7.966 10.5122222 8.31390123 10.2801235 8.74353086"></polygon>
                <polygon id="Fill-11" fill="#FFFFFF" points="8.94940741 8.54044444 9.40175309 8.74859259 9.15558025 8.32167901 9.48545679 7.96982716 9.00175309 8.05550617 8.75311111 7.62982716 8.70051852 8.11032099 8.21681481 8.19995062 8.66767901 8.41007407 8.61706173 8.8905679"></polygon>
                <polygon id="Fill-13" fill="#FFFFFF" points="7.30288889 9.15061728 7.80288889 9.19234568 7.40980247 8.87580247 7.58091358 8.43506173 7.16412346 8.67925926 6.76930864 8.36518519 6.90461728 8.83234568 6.49004938 9.07950617 6.99153086 9.1237037 7.12906173 9.59061728"></polygon>
                <polygon id="Fill-15" fill="#FFFFFF" points="6.00693827 10.2782469 6.48916049 10.1481235 6.00076543 9.98516049 5.99088889 9.51503704 5.69706173 9.88392593 5.20916049 9.72417284 5.51508642 10.1147901 5.22520988 10.4863951 5.70693827 10.3582469 6.0165679 10.7486173"></polygon>
                <polygon id="Fill-17" fill="#FFFFFF" points="5.23834568 11.7709383 5.63661728 11.4862469 5.12007407 11.4988395 4.92846914 11.063037 4.79785185 11.5069877 4.28254321 11.5225432 4.71809877 11.7845185 4.59167901 12.2301975 4.99044444 11.9477284 5.42871605 12.2084691"></polygon>
                <polygon id="Fill-19" fill="#FFFFFF" points="14.5357037 11.7188642 14.3591605 12.1583704 14.789037 11.8924444 15.1961975 12.1704691 15.0569383 11.7272593 15.483358 11.4600988 14.9682963 11.4504691 14.8238519 11.0070123 14.6468148 11.4455309 14.1295309 11.4391111"></polygon>
                <polygon id="Fill-21" fill="#FFFFFF" points="13.7203457 10.2344938 13.7262716 10.7058519 14.0228148 10.3115309 14.5092346 10.4344938 14.2087407 10.0663457 14.5018272 9.67177778 14.0188642 9.83745679 13.7141728 9.47177778 13.7181235 9.94190123 13.2351605 10.1100494"></polygon>
                <polygon id="Fill-23" fill="#FFFFFF" points="12.3904198 9.12158025 12.5770864 9.56034568 12.7007901 9.0917037 13.2005432 9.04158025 12.7785679 8.7988642 12.9000494 8.3317037 12.515358 8.64923457 12.0909136 8.40997531 12.275358 8.84898765 11.8916543 9.16997531"></polygon>
            </g>
        </g>
    </g>
</svg>