<?xml version="1.0" encoding="UTF-8"?>
<svg width="143px" height="75px" viewBox="0 0 143 75" version="1.1" xmlns="http://www.w3.org/2000/svg" xmlns:xlink="http://www.w3.org/1999/xlink">
    <title>Group 24</title>
    <defs>
        <polygon id="path-1" points="0.0661176471 0.218232558 135.898353 0.218232558 135.898353 50.9645609 0.0661176471 50.9645609"></polygon>
        <polygon id="path-3" points="7.05882353e-05 0.229194313 135.832306 0.229194313 135.832306 50 7.05882353e-05 50"></polygon>
    </defs>
    <g id="Page-1" stroke="none" stroke-width="1" fill="none" fill-rule="evenodd">
        <g id="web" transform="translate(25.000000, -4659.000000)">
            <g id="Group-24" transform="translate(46.500000, 4696.500000) rotate(-360.000000) translate(-46.500000, -4696.500000) translate(-25.000000, 4659.000000)">
                <path d="M92.5428616,49.6835678 C114.457884,49.6017957 134.860047,33.8312636 140,13 L137.036963,25.0087817 C131.897246,45.8400454 111.494847,61.6105774 89.5798245,61.6923495 L1,63 L3.96303718,50.9912183 L92.5428616,49.6835678 Z" id="Fill-1" fill="#0B72B5"></path>
                <g id="Group-5" transform="translate(7.000000, 0.000000)">
                    <mask id="mask-2" fill="white">
                        <use xlink:href="#path-1"></use>
                    </mask>
                    <g id="Clip-4"></g>
                    <path d="M88.5124706,37.3565749 C110.394588,37.2735516 130.766118,21.3077051 135.898353,0.218137674 L132.939765,12.375826 C127.807765,33.4653935 107.436,49.4314772 85.5538824,49.5142633 L0.0661176471,50.9645609 L3.02470588,38.8068726 L88.5124706,37.3565749 Z" id="Fill-3" fill="#EBB900" mask="url(#mask-2)"></path>
                </g>
                <g id="Group-8" transform="translate(0.000000, 25.000000)">
                    <mask id="mask-4" fill="white">
                        <use xlink:href="#path-3"></use>
                    </mask>
                    <g id="Clip-7"></g>
                    <path d="M88.4464235,37.3296682 C110.328541,37.2469668 130.700071,21.2972038 135.832306,0.229194313 L132.873718,12.374455 C127.741482,33.4424645 107.369953,49.3922275 85.4878353,49.4749289 L7.05882353e-05,50.0000474 L2.95865882,37.8545498 L88.4464235,37.3296682 Z" id="Fill-6" fill="#C13250" mask="url(#mask-4)"></path>
                </g>
                <g id="Group-23" transform="translate(58.000000, 47.000000)" fill="#FFFFFF">
                    <path d="M0.125562857,8.8985 L0.906113878,9.676 C0.981028163,9.7505 1.02127714,9.85675 1.01639143,9.9665 L0.965673061,11.10875 C0.95264449,11.40025 1.24276286,11.5935 1.47983633,11.45125 L2.40928531,10.89375 C2.49839143,10.84025 2.60494653,10.832 2.70056694,10.87075 L3.69585673,11.27575 C3.94968122,11.379 4.21048531,11.14225 4.15790571,10.856 L3.95154245,9.734 C3.93176694,9.62625 3.95735878,9.51475 4.02110571,9.42925 L4.68719143,8.53725 C4.85702816,8.3095 4.72790571,7.97 4.45849347,7.93525 L3.40178327,7.79925 C3.30034653,7.78625 3.20937918,7.72575 3.15354245,7.634 L2.56981592,6.67775 C2.42091796,6.43375 2.08031388,6.46075 1.96631388,6.7255 L1.51938735,7.7635 C1.47657918,7.863 1.39491796,7.93725 1.29650571,7.966 L0.269807755,8.267 C0.00784040816,8.34375 -0.0735881633,8.70025 0.125562857,8.8985" id="Fill-9"></path>
                    <path d="M8.91098449,9.2774 L9.69153551,10.0549 C9.7664498,10.1294 9.80669878,10.23565 9.80181306,10.3454 L9.75109469,11.48765 C9.73806612,11.77915 10.0281845,11.9724 10.265258,11.83015 L11.1947069,11.27265 C11.2838131,11.2194 11.3903682,11.2109 11.4859886,11.24965 L12.4812784,11.65465 C12.7351029,11.7579 12.9956743,11.52115 12.9430947,11.2349 L12.7369641,10.1129 C12.7171886,10.00515 12.7427804,9.89365 12.8065273,9.80815 L13.4726131,8.91615 C13.6424498,8.68865 13.5133273,8.3489 13.2439151,8.31415 L12.1872049,8.17815 C12.0857682,8.16515 11.9948008,8.10465 11.9389641,8.0129 L11.3552376,7.05665 C11.2063396,6.81265 10.8657355,6.83965 10.7517355,7.1044 L10.304809,8.1424 C10.2620008,8.2419 10.1803396,8.31615 10.0819273,8.3449 L9.05522939,8.6459 C8.79326204,8.7229 8.71183347,9.07915 8.91098449,9.2774" id="Fill-11"></path>
                    <path d="M17.7597576,9.3789 L18.5403086,10.1564 C18.6152229,10.2309 18.6554718,10.33715 18.6505861,10.4469 L18.5998678,11.58915 C18.5868392,11.88065 18.8769576,12.0739 19.114031,11.93165 L20.04348,11.37415 C20.1325861,11.3209 20.2391412,11.3124 20.3347616,11.35115 L21.3300514,11.75615 C21.5838759,11.8594 21.84468,11.62265 21.7921004,11.3364 L21.5857371,10.2144 C21.5659616,10.10665 21.5915535,9.99515 21.6553004,9.90965 L22.3213861,9.01765 C22.4912229,8.79015 22.3621004,8.4504 22.0926882,8.41565 L21.035978,8.27965 C20.9345412,8.26665 20.8435739,8.20615 20.7877371,8.1144 L20.2040106,7.15815 C20.0551127,6.91415 19.7145086,6.94115 19.6005086,7.2059 L19.153582,8.2439 C19.1107739,8.3434 19.0291127,8.41765 18.9307004,8.4464 L17.9040024,8.7474 C17.6420351,8.8244 17.5606065,9.18065 17.7597576,9.3789" id="Fill-13"></path>
                    <path d="M26.0401127,8.928475 L26.8206637,9.705975 C26.895578,9.780475 26.9358269,9.886725 26.9309412,9.996475 L26.8802229,11.138725 C26.8671943,11.430225 27.1573127,11.623475 27.3943861,11.481225 L28.3238351,10.923725 C28.4129412,10.870225 28.5194963,10.861975 28.6151167,10.900725 L29.6104065,11.305725 C29.864231,11.408975 30.1250351,11.172225 30.0724555,10.885975 L29.8660922,9.763975 C29.8463167,9.656225 29.8719086,9.544725 29.9356555,9.459225 L30.6017412,8.567225 C30.771578,8.339475 30.6424555,7.999975 30.3730433,7.965225 L29.3163331,7.829225 C29.2148963,7.816225 29.123929,7.755725 29.0680922,7.663975 L28.4843657,6.707725 C28.3354678,6.463725 27.9948637,6.490725 27.8808637,6.755475 L27.4339371,7.793475 C27.391129,7.892975 27.3094678,7.967225 27.2110555,7.995975 L26.1843576,8.296975 C25.9223902,8.373725 25.8409616,8.730225 26.0401127,8.928475" id="Fill-15"></path>
                    <path d="M35.0876645,8.680175 L35.8682155,9.457675 C35.9431298,9.532175 35.9833788,9.638425 35.9784931,9.748175 L35.9277747,10.890425 C35.9147461,11.181925 36.2048645,11.375175 36.441938,11.232925 L37.3713869,10.675425 C37.4604931,10.622175 37.5670482,10.613675 37.6626686,10.652425 L38.6579584,11.057425 C38.9117829,11.160675 39.1723543,10.923925 39.1197747,10.637675 L38.9136441,9.515675 C38.8938686,9.407925 38.9194604,9.296425 38.9832073,9.210925 L39.6492931,8.318925 C39.8191298,8.091425 39.6900073,7.751675 39.4205951,7.716925 L38.3638849,7.580925 C38.2624482,7.567925 38.1714808,7.507425 38.1156441,7.415675 L37.5319176,6.459425 C37.3830196,6.215425 37.0424155,6.242425 36.9284155,6.507175 L36.481489,7.545175 C36.4386808,7.644675 36.3570196,7.718925 36.2586073,7.747675 L35.2319094,8.048675 C34.969942,8.125425 34.8885135,8.481925 35.0876645,8.680175" id="Fill-17"></path>
                    <path d="M43.8587082,6.601425 L44.6392592,7.378925 C44.7141735,7.453425 44.7544224,7.559675 44.7495367,7.669425 L44.6988184,8.811675 C44.6857898,9.103175 44.9759082,9.296425 45.2129816,9.154175 L46.1424306,8.596675 C46.2315367,8.543175 46.3380918,8.534925 46.4334796,8.573675 L47.429002,8.978675 C47.6828265,9.081925 47.943398,8.845175 47.8908184,8.558925 L47.6846878,7.436925 C47.6649122,7.329175 47.6905041,7.217675 47.754251,7.132175 L48.4203367,6.240175 C48.5901735,6.012425 48.461051,5.672925 48.1916388,5.638175 L47.1349286,5.502175 C47.0334918,5.489175 46.9425245,5.428675 46.8866878,5.336925 L46.3029612,4.380675 C46.1540633,4.136675 45.8134592,4.163675 45.6994592,4.428425 L45.2525327,5.466425 C45.2097245,5.565925 45.1280633,5.640175 45.029651,5.668925 L44.0029531,5.969925 C43.7409857,6.046675 43.6595571,6.403175 43.8587082,6.601425" id="Fill-19"></path>
                    <path d="M52.3587576,2.455375 L53.1393086,3.232875 C53.2142229,3.307375 53.2544718,3.413625 53.2495861,3.523375 L53.1988678,4.665625 C53.1858392,4.957125 53.4759576,5.150375 53.713031,5.008125 L54.64248,4.450625 C54.7315861,4.397125 54.8381412,4.388875 54.933529,4.427625 L55.9290514,4.832625 C56.1828759,4.935875 56.4434473,4.699125 56.3908678,4.412875 L56.1847371,3.290875 C56.1649616,3.183125 56.1905535,3.071625 56.2543004,2.986125 L56.9203861,2.094125 C57.0902229,1.866375 56.9611004,1.526875 56.6916882,1.492125 L55.634978,1.356125 C55.5335412,1.343125 55.4425739,1.282625 55.3867371,1.190875 L54.8030106,0.234625 C54.6541127,-0.009375 54.3135086,0.017625 54.1995086,0.282375 L53.752582,1.320375 C53.7097739,1.419875 53.6281127,1.494125 53.5297004,1.522875 L52.5030024,1.823875 C52.2410351,1.900625 52.1596065,2.257125 52.3587576,2.455375" id="Fill-21"></path>
                </g>
            </g>
        </g>
    </g>
</svg>